solid 
facet normal -0.5544942470545084 -0.8321875569746606 0.0
outer loop
vertex 0.3253713 0.7298794 1.224
vertex 0.2478759 0.7815153 1.224
vertex 0.3253713 0.7298794 0.0
endloop
endfacet
facet normal -0.5544942470545084 -0.8321875569746606 -0.0
outer loop
vertex 0.3253713 0.7298794 0.0
vertex 0.2478759 0.7815153 1.224
vertex 0.2478759 0.7815153 0.0
endloop
endfacet
facet normal 0.37115009473120525 -0.9285728873820392 0.0
outer loop
vertex 1.177486 1.528226 0.6878307
vertex 1.177486 1.528226 0.4558779
vertex 1.180148 1.52929 0.0
endloop
endfacet
facet normal 0.34865715179429463 -0.937250322764157 -0.00015159542795258914
outer loop
vertex 1.180148 1.52929 0.0
vertex 1.177486 1.528226 0.4558779
vertex 0.943812 1.441373 0.0
endloop
endfacet
facet normal 0.34839731782568656 -0.9373469522710721 0.0
outer loop
vertex 0.943812 1.441373 0.0
vertex 1.177486 1.528226 0.4558779
vertex 0.943812 1.441373 0.4558779
endloop
endfacet
facet normal 0.37479596855417985 -0.9271073195458734 0.0
outer loop
vertex 0.943812 1.441373 0.0
vertex 0.943812 1.441373 0.4558779
vertex 0.7780836 1.374375 0.0
endloop
endfacet
facet normal 0.36773668470366944 -0.9299251839378804 0.0029804364199857163
outer loop
vertex 0.7780836 1.374375 0.0
vertex 0.943812 1.441373 0.4558779
vertex 0.809597 1.388298 0.4558779
endloop
endfacet
facet normal 0.4041267999824167 -0.9147029733940805 0.0
outer loop
vertex 0.7780836 1.374375 0.0
vertex 0.809597 1.388298 0.4558779
vertex 0.809597 1.388298 0.6878307
endloop
endfacet
facet normal 0.3483973148646844 -0.9373469443046321 0.00013037579094945473
outer loop
vertex 1.177486 1.528226 0.6878307
vertex 1.180148 1.52929 1.224
vertex 0.943812 1.441373 0.6878307
endloop
endfacet
facet normal 0.34865715580057 -0.9372503335337136 0.0
outer loop
vertex 0.943812 1.441373 0.6878307
vertex 1.180148 1.52929 1.224
vertex 0.943812 1.441373 1.224
endloop
endfacet
facet normal 0.3677383180172666 -0.9299293142286846 0.0
outer loop
vertex 0.943812 1.441373 0.6878307
vertex 0.943812 1.441373 1.224
vertex 0.809597 1.388298 0.6878307
endloop
endfacet
facet normal 0.3747951840618468 -0.9271053790004965 -0.002046028443645363
outer loop
vertex 0.809597 1.388298 0.6878307
vertex 0.943812 1.441373 1.224
vertex 0.7780836 1.374375 1.224
endloop
endfacet
facet normal 0.40412679998241674 -0.9147029733940805 0.0
outer loop
vertex 0.809597 1.388298 0.6878307
vertex 0.7780836 1.374375 1.224
vertex 0.7780836 1.374375 0.0
endloop
endfacet
facet normal 0.45269070079542983 -0.891667611508539 0.0
outer loop
vertex 0.7780836 1.374375 0.0
vertex 0.7780836 1.374375 1.224
vertex 0.6735513 1.321305 1.224
endloop
endfacet
facet normal 0.45269070079542983 -0.891667611508539 0.0
outer loop
vertex 0.7780836 1.374375 0.0
vertex 0.6735513 1.321305 1.224
vertex 0.6735513 1.321305 0.0
endloop
endfacet
facet normal 0.5451889468530604 -0.8383131945933159 0.0
outer loop
vertex 0.6735513 1.321305 0.0
vertex 0.6735513 1.321305 1.224
vertex 0.5871996 1.265147 1.224
endloop
endfacet
facet normal 0.5451889468530604 -0.8383131945933159 0.0
outer loop
vertex 0.6735513 1.321305 0.0
vertex 0.5871996 1.265147 1.224
vertex 0.5871996 1.265147 0.0
endloop
endfacet
facet normal 0.6520362427686206 -0.7581877987122849 0.0
outer loop
vertex 0.5871996 1.265147 0.0
vertex 0.5871996 1.265147 1.224
vertex 0.5108641 1.199499 1.224
endloop
endfacet
facet normal 0.6520362427686206 -0.7581877987122849 0.0
outer loop
vertex 0.5871996 1.265147 0.0
vertex 0.5108641 1.199499 1.224
vertex 0.5108641 1.199499 0.0
endloop
endfacet
facet normal 0.7592356500142443 -0.6508158170691982 0.0
outer loop
vertex 0.5108641 1.199499 0.0
vertex 0.5108641 1.199499 1.224
vertex 0.4512245 1.129924 1.224
endloop
endfacet
facet normal 0.7592356500142443 -0.6508158170691982 0.0
outer loop
vertex 0.5108641 1.199499 0.0
vertex 0.4512245 1.129924 1.224
vertex 0.4512245 1.129924 0.0
endloop
endfacet
facet normal 0.8517911688245009 -0.5238814796426675 0.0
outer loop
vertex 0.4512245 1.129924 0.0
vertex 0.4512245 1.129924 1.224
vertex 0.4025334 1.050756 1.224
endloop
endfacet
facet normal 0.8517911688245009 -0.5238814796426675 0.0
outer loop
vertex 0.4512245 1.129924 0.0
vertex 0.4025334 1.050756 1.224
vertex 0.4025334 1.050756 0.0
endloop
endfacet
facet normal 0.9237319172105217 -0.383039612999196 0.0
outer loop
vertex 0.4025334 1.050756 0.0
vertex 0.4025334 1.050756 1.224
vertex 0.3646684 0.9594414 1.224
endloop
endfacet
facet normal 0.9237319172105217 -0.383039612999196 0.0
outer loop
vertex 0.4025334 1.050756 0.0
vertex 0.3646684 0.9594414 1.224
vertex 0.3646684 0.9594414 0.0
endloop
endfacet
facet normal 0.9708612593183772 -0.23964226495911475 0.0
outer loop
vertex 0.3646684 0.9594414 0.0
vertex 0.3646684 0.9594414 1.224
vertex 0.3383885 0.8529738 1.224
endloop
endfacet
facet normal 0.9708612593183772 -0.23964226495911475 0.0
outer loop
vertex 0.3646684 0.9594414 0.0
vertex 0.3383885 0.8529738 1.224
vertex 0.3383885 0.8529738 0.0
endloop
endfacet
facet normal 0.9944549614776181 -0.1051633471916387 0.0
outer loop
vertex 0.3383885 0.8529738 0.0
vertex 0.3383885 0.8529738 1.224
vertex 0.3253713 0.7298794 1.224
endloop
endfacet
facet normal 0.9944549614776181 -0.1051633471916387 0.0
outer loop
vertex 0.3383885 0.8529738 0.0
vertex 0.3253713 0.7298794 1.224
vertex 0.3253713 0.7298794 0.0
endloop
endfacet
facet normal 0.37115009473120525 -0.9285728873820392 0.0
outer loop
vertex 1.177486 1.528226 0.6878307
vertex 1.180148 1.52929 0.0
vertex 1.180148 1.52929 1.224
endloop
endfacet
facet normal 0.4045555630756632 -0.9145134205600994 0.0
outer loop
vertex 1.180148 1.52929 1.224
vertex 1.180148 1.52929 0.0
vertex 1.308689 1.586153 0.0
endloop
endfacet
facet normal 0.4045555630756632 -0.9145134205600994 0.0
outer loop
vertex 1.180148 1.52929 1.224
vertex 1.308689 1.586153 0.0
vertex 1.308689 1.586153 1.224
endloop
endfacet
facet normal 0.48980795989138315 -0.8718303518615541 0.0
outer loop
vertex 1.308689 1.586153 1.224
vertex 1.308689 1.586153 0.0
vertex 1.40961 1.642852 0.0
endloop
endfacet
facet normal 0.48980795989138315 -0.8718303518615541 0.0
outer loop
vertex 1.308689 1.586153 1.224
vertex 1.40961 1.642852 0.0
vertex 1.40961 1.642852 1.224
endloop
endfacet
facet normal 0.5960778262429597 -0.8029266623182144 0.0
outer loop
vertex 1.40961 1.642852 1.224
vertex 1.40961 1.642852 0.0
vertex 1.499456 1.709552 0.0
endloop
endfacet
facet normal 0.5960778262429597 -0.8029266623182144 0.0
outer loop
vertex 1.40961 1.642852 1.224
vertex 1.499456 1.709552 0.0
vertex 1.499456 1.709552 1.224
endloop
endfacet
facet normal 0.7069142227309936 -0.7072992872190919 0.0
outer loop
vertex 1.499456 1.709552 1.224
vertex 1.499456 1.709552 0.0
vertex 1.565582 1.775642 0.0
endloop
endfacet
facet normal 0.7069142227309936 -0.7072992872190919 0.0
outer loop
vertex 1.499456 1.709552 1.224
vertex 1.565582 1.775642 0.0
vertex 1.565582 1.775642 1.224
endloop
endfacet
facet normal 0.8045059426924838 -0.5939446002553421 0.0
outer loop
vertex 1.565582 1.775642 1.224
vertex 1.565582 1.775642 0.0
vertex 1.619532 1.848718 0.0
endloop
endfacet
facet normal 0.8045059426924838 -0.5939446002553421 0.0
outer loop
vertex 1.565582 1.775642 1.224
vertex 1.619532 1.848718 0.0
vertex 1.619532 1.848718 1.224
endloop
endfacet
facet normal 0.8885318610590766 -0.4588149211641811 0.0
outer loop
vertex 1.619532 1.848718 1.224
vertex 1.619532 1.848718 0.0
vertex 1.666142 1.938982 0.0
endloop
endfacet
facet normal 0.8885318610590766 -0.4588149211641811 0.0
outer loop
vertex 1.619532 1.848718 1.224
vertex 1.666142 1.938982 0.0
vertex 1.666142 1.938982 1.224
endloop
endfacet
facet normal 0.9497809789464015 -0.3129154710646556 0.0
outer loop
vertex 1.666142 1.938982 1.224
vertex 1.666142 1.938982 0.0
vertex 1.699434 2.040032 0.0
endloop
endfacet
facet normal 0.9497809789464015 -0.3129154710646556 0.0
outer loop
vertex 1.666142 1.938982 1.224
vertex 1.699434 2.040032 0.0
vertex 1.699434 2.040032 1.224
endloop
endfacet
facet normal 0.9839754002576763 -0.17830426716078823 0.0
outer loop
vertex 1.699434 2.040032 1.224
vertex 1.699434 2.040032 0.0
vertex 1.71909 2.148504 0.0
endloop
endfacet
facet normal 0.9839754002576763 -0.17830426716078823 0.0
outer loop
vertex 1.699434 2.040032 1.224
vertex 1.71909 2.148504 0.0
vertex 1.71909 2.148504 1.224
endloop
endfacet
facet normal 0.9938619419178762 -0.11062748486351878 0.0
outer loop
vertex 1.71909 2.148504 1.224
vertex 1.71909 2.148504 0.0
vertex 1.720701 2.162977 0.0
endloop
endfacet
facet normal 0.9938619419178762 -0.11062748486351878 0.0
outer loop
vertex 1.71909 2.148504 1.224
vertex 1.720701 2.162977 0.0
vertex 1.720701 2.162977 1.224
endloop
endfacet
facet normal 0.5544920176123728 0.8321890424682123 0.0
outer loop
vertex 1.643205 2.214613 1.224
vertex 1.720701 2.162977 1.224
vertex 1.643205 2.214613 0.0
endloop
endfacet
facet normal 0.5544920176123728 0.8321890424682123 0.0
outer loop
vertex 1.643205 2.214613 0.0
vertex 1.720701 2.162977 1.224
vertex 1.720701 2.162977 0.0
endloop
endfacet
facet normal -0.36411241518147336 0.9313471235352587 0.0038320481878654465
outer loop
vertex 0.7502589 1.447636 0.6878307
vertex 0.7005881 1.426011 1.224
vertex 0.8663165 1.493009 0.6878307
endloop
endfacet
facet normal -0.3747959685541798 0.9271073195458734 0.0
outer loop
vertex 0.8663165 1.493009 0.6878307
vertex 0.7005881 1.426011 1.224
vertex 0.8663165 1.493009 1.224
endloop
endfacet
facet normal -0.3486565078391288 0.9372505745751365 0.0
outer loop
vertex 0.8663165 1.493009 0.6878307
vertex 0.8663165 1.493009 1.224
vertex 1.102653 1.580926 1.224
endloop
endfacet
facet normal -0.39917626972556736 0.9168742038513141 0.0
outer loop
vertex 0.7502589 1.447636 0.6878307
vertex 0.7502589 1.447636 0.4558779
vertex 0.7005881 1.426011 0.0
endloop
endfacet
facet normal -0.37479411877199476 0.9271027438653773 -0.0031417910835090474
outer loop
vertex 0.7005881 1.426011 0.0
vertex 0.7502589 1.447636 0.4558779
vertex 0.8663165 1.493009 0.0
endloop
endfacet
facet normal -0.37479749651143024 0.9270532552599777 0.009954823988555562
outer loop
vertex 1.102653 1.580926 0.4558779
vertex 1.118414 1.587298 0.4558779
vertex 1.231194 1.637789 0.0
endloop
endfacet
facet normal -0.4086141248943077 0.9127072350632809 0.0
outer loop
vertex 1.231194 1.637789 0.0
vertex 1.118414 1.587298 0.4558779
vertex 1.118414 1.587298 0.6878307
endloop
endfacet
facet normal -0.364115088632286 0.9313539618374436 0.0
outer loop
vertex 0.7502589 1.447636 0.4558779
vertex 0.8663165 1.493009 0.4558779
vertex 0.8663165 1.493009 0.0
endloop
endfacet
facet normal -0.3486565078391288 0.9372505745751365 0.0
outer loop
vertex 0.8663165 1.493009 0.0
vertex 0.8663165 1.493009 0.4558779
vertex 1.102653 1.580926 0.4558779
endloop
endfacet
facet normal -0.3486565078391288 0.9372505745751365 0.0
outer loop
vertex 0.8663165 1.493009 0.0
vertex 1.102653 1.580926 0.4558779
vertex 1.102653 1.580926 0.0
endloop
endfacet
facet normal -0.4045555630756637 0.914513420560099 0.0
outer loop
vertex 1.102653 1.580926 0.0
vertex 1.102653 1.580926 0.4558779
vertex 1.231194 1.637789 0.0
endloop
endfacet
facet normal -0.9938694898282318 0.11055965443402148 0.0
outer loop
vertex 1.643205 2.214613 1.224
vertex 1.643205 2.214613 0.0
vertex 1.641595 2.20014 0.0
endloop
endfacet
facet normal -0.9938694898282318 0.11055965443402148 0.0
outer loop
vertex 1.643205 2.214613 1.224
vertex 1.641595 2.20014 0.0
vertex 1.641595 2.20014 1.224
endloop
endfacet
facet normal -0.9839754002576767 0.17830426716078554 0.0
outer loop
vertex 1.641595 2.20014 1.224
vertex 1.641595 2.20014 0.0
vertex 1.621939 2.091668 0.0
endloop
endfacet
facet normal -0.9839754002576767 0.17830426716078554 0.0
outer loop
vertex 1.641595 2.20014 1.224
vertex 1.621939 2.091668 0.0
vertex 1.621939 2.091668 1.224
endloop
endfacet
facet normal -0.9497809789464005 0.3129154710646581 0.0
outer loop
vertex 1.621939 2.091668 1.224
vertex 1.621939 2.091668 0.0
vertex 1.588647 1.990618 0.0
endloop
endfacet
facet normal -0.9497809789464005 0.3129154710646581 0.0
outer loop
vertex 1.621939 2.091668 1.224
vertex 1.588647 1.990618 0.0
vertex 1.588647 1.990618 1.224
endloop
endfacet
facet normal -0.8885318610590776 0.45881492116417943 0.0
outer loop
vertex 1.588647 1.990618 1.224
vertex 1.588647 1.990618 0.0
vertex 1.542037 1.900354 0.0
endloop
endfacet
facet normal -0.8885318610590776 0.45881492116417943 0.0
outer loop
vertex 1.588647 1.990618 1.224
vertex 1.542037 1.900354 0.0
vertex 1.542037 1.900354 1.224
endloop
endfacet
facet normal -0.8045006821631151 0.5939517256470279 0.0
outer loop
vertex 1.542037 1.900354 1.224
vertex 1.542037 1.900354 0.0
vertex 1.488086 1.827278 0.0
endloop
endfacet
facet normal -0.8045006821631151 0.5939517256470279 0.0
outer loop
vertex 1.542037 1.900354 1.224
vertex 1.488086 1.827278 0.0
vertex 1.488086 1.827278 1.224
endloop
endfacet
facet normal -0.7069142227309936 0.7072992872190919 0.0
outer loop
vertex 1.488086 1.827278 1.224
vertex 1.488086 1.827278 0.0
vertex 1.42196 1.761188 0.0
endloop
endfacet
facet normal -0.7069142227309936 0.7072992872190919 0.0
outer loop
vertex 1.488086 1.827278 1.224
vertex 1.42196 1.761188 0.0
vertex 1.42196 1.761188 1.224
endloop
endfacet
facet normal -0.5960778262429597 0.8029266623182144 0.0
outer loop
vertex 1.42196 1.761188 1.224
vertex 1.42196 1.761188 0.0
vertex 1.332114 1.694488 0.0
endloop
endfacet
facet normal -0.5960778262429597 0.8029266623182144 0.0
outer loop
vertex 1.42196 1.761188 1.224
vertex 1.332114 1.694488 0.0
vertex 1.332114 1.694488 1.224
endloop
endfacet
facet normal -0.4898116489114444 0.8718282793019804 0.0
outer loop
vertex 1.332114 1.694488 1.224
vertex 1.332114 1.694488 0.0
vertex 1.231194 1.637789 0.0
endloop
endfacet
facet normal -0.4898116489114444 0.8718282793019804 0.0
outer loop
vertex 1.332114 1.694488 1.224
vertex 1.231194 1.637789 0.0
vertex 1.231194 1.637789 1.224
endloop
endfacet
facet normal -0.4086141248943077 0.9127072350632809 0.0
outer loop
vertex 1.231194 1.637789 1.224
vertex 1.231194 1.637789 0.0
vertex 1.118414 1.587298 0.6878307
endloop
endfacet
facet normal -0.40455535106232154 0.9145129412957791 -0.0010237819027618122
outer loop
vertex 1.231194 1.637789 1.224
vertex 1.118414 1.587298 0.6878307
vertex 1.102653 1.580926 1.224
endloop
endfacet
facet normal -0.3748160688305311 0.9270991934773897 0.0
outer loop
vertex 1.102653 1.580926 1.224
vertex 1.118414 1.587298 0.6878307
vertex 1.102653 1.580926 0.6878307
endloop
endfacet
facet normal -0.3486565078391288 0.9372505745751365 0.0
outer loop
vertex 1.102653 1.580926 1.224
vertex 1.102653 1.580926 0.6878307
vertex 0.8663165 1.493009 0.6878307
endloop
endfacet
facet normal -0.39917626972556736 0.9168742038513141 0.0
outer loop
vertex 0.7502589 1.447636 0.6878307
vertex 0.7005881 1.426011 0.0
vertex 0.7005881 1.426011 1.224
endloop
endfacet
facet normal -0.45269070079542983 0.891667611508539 0.0
outer loop
vertex 0.7005881 1.426011 1.224
vertex 0.7005881 1.426011 0.0
vertex 0.5960558 1.372941 0.0
endloop
endfacet
facet normal -0.45269070079542983 0.891667611508539 0.0
outer loop
vertex 0.7005881 1.426011 1.224
vertex 0.5960558 1.372941 0.0
vertex 0.5960558 1.372941 1.224
endloop
endfacet
facet normal -0.5451893905526557 0.8383129060373722 0.0
outer loop
vertex 0.5960558 1.372941 1.224
vertex 0.5960558 1.372941 0.0
vertex 0.5097042 1.316783 0.0
endloop
endfacet
facet normal -0.5451893905526557 0.8383129060373722 0.0
outer loop
vertex 0.5960558 1.372941 1.224
vertex 0.5097042 1.316783 0.0
vertex 0.5097042 1.316783 1.224
endloop
endfacet
facet normal -0.6520362427686204 0.7581877987122854 0.0
outer loop
vertex 0.5097042 1.316783 1.224
vertex 0.5097042 1.316783 0.0
vertex 0.4333687 1.251135 0.0
endloop
endfacet
facet normal -0.6520362427686204 0.7581877987122854 0.0
outer loop
vertex 0.5097042 1.316783 1.224
vertex 0.4333687 1.251135 0.0
vertex 0.4333687 1.251135 1.224
endloop
endfacet
facet normal -0.7592356500142446 0.6508158170691979 0.0
outer loop
vertex 0.4333687 1.251135 1.224
vertex 0.4333687 1.251135 0.0
vertex 0.3737291 1.18156 0.0
endloop
endfacet
facet normal -0.7592356500142446 0.6508158170691979 0.0
outer loop
vertex 0.4333687 1.251135 1.224
vertex 0.3737291 1.18156 0.0
vertex 0.3737291 1.18156 1.224
endloop
endfacet
facet normal -0.8517941216894195 0.5238766784801079 0.0
outer loop
vertex 0.3737291 1.18156 1.224
vertex 0.3737291 1.18156 0.0
vertex 0.325038 1.102391 0.0
endloop
endfacet
facet normal -0.8517941216894195 0.5238766784801079 0.0
outer loop
vertex 0.3737291 1.18156 1.224
vertex 0.325038 1.102391 0.0
vertex 0.325038 1.102391 1.224
endloop
endfacet
facet normal -0.9237306687499534 0.38304262375193165 0.0
outer loop
vertex 0.325038 1.102391 1.224
vertex 0.325038 1.102391 0.0
vertex 0.2871729 1.011077 0.0
endloop
endfacet
facet normal -0.9237306687499534 0.38304262375193165 0.0
outer loop
vertex 0.325038 1.102391 1.224
vertex 0.2871729 1.011077 0.0
vertex 0.2871729 1.011077 1.224
endloop
endfacet
facet normal -0.9708613143727415 0.23964204191759142 0.0
outer loop
vertex 0.2871729 1.011077 1.224
vertex 0.2871729 1.011077 0.0
vertex 0.2608931 0.9046097 0.0
endloop
endfacet
facet normal -0.9708613143727415 0.23964204191759142 0.0
outer loop
vertex 0.2871729 1.011077 1.224
vertex 0.2608931 0.9046097 0.0
vertex 0.2608931 0.9046097 1.224
endloop
endfacet
facet normal -0.9944549614776181 0.10516334719163857 0.0
outer loop
vertex 0.2608931 0.9046097 1.224
vertex 0.2608931 0.9046097 0.0
vertex 0.2478759 0.7815153 0.0
endloop
endfacet
facet normal -0.9944549614776181 0.10516334719163857 0.0
outer loop
vertex 0.2608931 0.9046097 1.224
vertex 0.2478759 0.7815153 0.0
vertex 0.2478759 0.7815153 1.224
endloop
endfacet
facet normal 0.0 -0.0 0.9999999999999999
outer loop
vertex 1.621939 2.091668 1.224
vertex 1.71909 2.148504 1.224
vertex 1.641595 2.20014 1.224
endloop
endfacet
facet normal -0.0 0.0 1.0
outer loop
vertex 1.641595 2.20014 1.224
vertex 1.71909 2.148504 1.224
vertex 1.720701 2.162977 1.224
endloop
endfacet
facet normal -0.0 -0.0 1.0
outer loop
vertex 1.641595 2.20014 1.224
vertex 1.720701 2.162977 1.224
vertex 1.643205 2.214613 1.224
endloop
endfacet
facet normal -0.0 -0.0 1.0
outer loop
vertex 0.2478759 0.7815153 1.224
vertex 0.3253713 0.7298794 1.224
vertex 0.2608931 0.9046097 1.224
endloop
endfacet
facet normal -0.0 0.0 1.0
outer loop
vertex 0.2608931 0.9046097 1.224
vertex 0.3253713 0.7298794 1.224
vertex 0.3383885 0.8529738 1.224
endloop
endfacet
facet normal -0.0 -0.0 1.0
outer loop
vertex 0.2608931 0.9046097 1.224
vertex 0.3383885 0.8529738 1.224
vertex 0.2871729 1.011077 1.224
endloop
endfacet
facet normal -0.0 0.0 0.9999999999999999
outer loop
vertex 0.2871729 1.011077 1.224
vertex 0.3383885 0.8529738 1.224
vertex 0.3646684 0.9594414 1.224
endloop
endfacet
facet normal -0.0 -0.0 1.0
outer loop
vertex 0.2871729 1.011077 1.224
vertex 0.3646684 0.9594414 1.224
vertex 0.325038 1.102391 1.224
endloop
endfacet
facet normal -0.0 0.0 1.0
outer loop
vertex 0.325038 1.102391 1.224
vertex 0.3646684 0.9594414 1.224
vertex 0.4025334 1.050756 1.224
endloop
endfacet
facet normal -0.0 -0.0 1.0
outer loop
vertex 0.325038 1.102391 1.224
vertex 0.4025334 1.050756 1.224
vertex 0.3737291 1.18156 1.224
endloop
endfacet
facet normal -0.0 0.0 1.0
outer loop
vertex 0.3737291 1.18156 1.224
vertex 0.4025334 1.050756 1.224
vertex 0.4512245 1.129924 1.224
endloop
endfacet
facet normal -0.0 -0.0 1.0
outer loop
vertex 0.3737291 1.18156 1.224
vertex 0.4512245 1.129924 1.224
vertex 0.4333687 1.251135 1.224
endloop
endfacet
facet normal -0.0 0.0 1.0
outer loop
vertex 0.4333687 1.251135 1.224
vertex 0.4512245 1.129924 1.224
vertex 0.5108641 1.199499 1.224
endloop
endfacet
facet normal -0.0 -0.0 1.0
outer loop
vertex 0.4333687 1.251135 1.224
vertex 0.5108641 1.199499 1.224
vertex 0.5097042 1.316783 1.224
endloop
endfacet
facet normal -0.0 0.0 1.0
outer loop
vertex 0.5097042 1.316783 1.224
vertex 0.5108641 1.199499 1.224
vertex 0.5871996 1.265147 1.224
endloop
endfacet
facet normal -0.0 0.0 1.0
outer loop
vertex 0.5097042 1.316783 1.224
vertex 0.5871996 1.265147 1.224
vertex 0.5960558 1.372941 1.224
endloop
endfacet
facet normal -0.0 0.0 1.0
outer loop
vertex 0.5960558 1.372941 1.224
vertex 0.5871996 1.265147 1.224
vertex 0.6735513 1.321305 1.224
endloop
endfacet
facet normal -0.0 0.0 0.9999999999999999
outer loop
vertex 0.5960558 1.372941 1.224
vertex 0.6735513 1.321305 1.224
vertex 0.7005881 1.426011 1.224
endloop
endfacet
facet normal -0.0 0.0 1.0
outer loop
vertex 0.7005881 1.426011 1.224
vertex 0.6735513 1.321305 1.224
vertex 0.7780836 1.374375 1.224
endloop
endfacet
facet normal -0.0 0.0 1.0
outer loop
vertex 0.7005881 1.426011 1.224
vertex 0.7780836 1.374375 1.224
vertex 0.8663165 1.493009 1.224
endloop
endfacet
facet normal -0.0 0.0 1.0
outer loop
vertex 0.8663165 1.493009 1.224
vertex 0.7780836 1.374375 1.224
vertex 0.943812 1.441373 1.224
endloop
endfacet
facet normal -0.0 0.0 1.0
outer loop
vertex 0.8663165 1.493009 1.224
vertex 0.943812 1.441373 1.224
vertex 1.102653 1.580926 1.224
endloop
endfacet
facet normal -0.0 0.0 1.0
outer loop
vertex 1.102653 1.580926 1.224
vertex 0.943812 1.441373 1.224
vertex 1.180148 1.52929 1.224
endloop
endfacet
facet normal -0.0 0.0 1.0
outer loop
vertex 1.102653 1.580926 1.224
vertex 1.180148 1.52929 1.224
vertex 1.231194 1.637789 1.224
endloop
endfacet
facet normal -0.0 0.0 1.0
outer loop
vertex 1.231194 1.637789 1.224
vertex 1.180148 1.52929 1.224
vertex 1.308689 1.586153 1.224
endloop
endfacet
facet normal -0.0 0.0 1.0
outer loop
vertex 1.231194 1.637789 1.224
vertex 1.308689 1.586153 1.224
vertex 1.332114 1.694488 1.224
endloop
endfacet
facet normal -0.0 0.0 1.0
outer loop
vertex 1.332114 1.694488 1.224
vertex 1.308689 1.586153 1.224
vertex 1.40961 1.642852 1.224
endloop
endfacet
facet normal -0.0 0.0 1.0
outer loop
vertex 1.332114 1.694488 1.224
vertex 1.40961 1.642852 1.224
vertex 1.42196 1.761188 1.224
endloop
endfacet
facet normal -0.0 0.0 1.0
outer loop
vertex 1.42196 1.761188 1.224
vertex 1.40961 1.642852 1.224
vertex 1.499456 1.709552 1.224
endloop
endfacet
facet normal -0.0 -0.0 1.0
outer loop
vertex 1.42196 1.761188 1.224
vertex 1.499456 1.709552 1.224
vertex 1.488086 1.827278 1.224
endloop
endfacet
facet normal -0.0 0.0 1.0
outer loop
vertex 1.488086 1.827278 1.224
vertex 1.499456 1.709552 1.224
vertex 1.565582 1.775642 1.224
endloop
endfacet
facet normal -0.0 -0.0 1.0
outer loop
vertex 1.488086 1.827278 1.224
vertex 1.565582 1.775642 1.224
vertex 1.542037 1.900354 1.224
endloop
endfacet
facet normal -0.0 0.0 1.0
outer loop
vertex 1.542037 1.900354 1.224
vertex 1.565582 1.775642 1.224
vertex 1.619532 1.848718 1.224
endloop
endfacet
facet normal -0.0 -0.0 1.0
outer loop
vertex 1.542037 1.900354 1.224
vertex 1.619532 1.848718 1.224
vertex 1.588647 1.990618 1.224
endloop
endfacet
facet normal -0.0 0.0 1.0
outer loop
vertex 1.588647 1.990618 1.224
vertex 1.619532 1.848718 1.224
vertex 1.666142 1.938982 1.224
endloop
endfacet
facet normal -0.0 -0.0 1.0
outer loop
vertex 1.588647 1.990618 1.224
vertex 1.666142 1.938982 1.224
vertex 1.621939 2.091668 1.224
endloop
endfacet
facet normal -0.0 0.0 1.0
outer loop
vertex 1.621939 2.091668 1.224
vertex 1.666142 1.938982 1.224
vertex 1.699434 2.040032 1.224
endloop
endfacet
facet normal -0.0 0.0 0.9999999999999999
outer loop
vertex 1.621939 2.091668 1.224
vertex 1.699434 2.040032 1.224
vertex 1.71909 2.148504 1.224
endloop
endfacet
facet normal 0.0 0.0 -1.0
outer loop
vertex 0.3253713 0.7298794 0.0
vertex 0.2478759 0.7815153 0.0
vertex 0.3383885 0.8529738 0.0
endloop
endfacet
facet normal -0.0 0.0 -1.0
outer loop
vertex 0.3383885 0.8529738 0.0
vertex 0.2478759 0.7815153 0.0
vertex 0.2608931 0.9046097 0.0
endloop
endfacet
facet normal 0.0 0.0 -1.0
outer loop
vertex 0.3383885 0.8529738 0.0
vertex 0.2608931 0.9046097 0.0
vertex 0.3646684 0.9594414 0.0
endloop
endfacet
facet normal -0.0 0.0 -1.0
outer loop
vertex 0.3646684 0.9594414 0.0
vertex 0.2608931 0.9046097 0.0
vertex 0.2871729 1.011077 0.0
endloop
endfacet
facet normal 0.0 0.0 -1.0
outer loop
vertex 0.3646684 0.9594414 0.0
vertex 0.2871729 1.011077 0.0
vertex 0.4025334 1.050756 0.0
endloop
endfacet
facet normal -0.0 0.0 -1.0
outer loop
vertex 0.4025334 1.050756 0.0
vertex 0.2871729 1.011077 0.0
vertex 0.325038 1.102391 0.0
endloop
endfacet
facet normal 0.0 0.0 -1.0
outer loop
vertex 0.4025334 1.050756 0.0
vertex 0.325038 1.102391 0.0
vertex 0.4512245 1.129924 0.0
endloop
endfacet
facet normal -0.0 0.0 -1.0
outer loop
vertex 0.4512245 1.129924 0.0
vertex 0.325038 1.102391 0.0
vertex 0.3737291 1.18156 0.0
endloop
endfacet
facet normal 0.0 0.0 -1.0
outer loop
vertex 0.4512245 1.129924 0.0
vertex 0.3737291 1.18156 0.0
vertex 0.5108641 1.199499 0.0
endloop
endfacet
facet normal -0.0 0.0 -1.0
outer loop
vertex 0.5108641 1.199499 0.0
vertex 0.3737291 1.18156 0.0
vertex 0.4333687 1.251135 0.0
endloop
endfacet
facet normal 0.0 0.0 -1.0
outer loop
vertex 0.5108641 1.199499 0.0
vertex 0.4333687 1.251135 0.0
vertex 0.5871996 1.265147 0.0
endloop
endfacet
facet normal -0.0 0.0 -1.0
outer loop
vertex 0.5871996 1.265147 0.0
vertex 0.4333687 1.251135 0.0
vertex 0.5097042 1.316783 0.0
endloop
endfacet
facet normal 0.0 0.0 -1.0
outer loop
vertex 0.5871996 1.265147 0.0
vertex 0.5097042 1.316783 0.0
vertex 0.6735513 1.321305 0.0
endloop
endfacet
facet normal -0.0 0.0 -1.0
outer loop
vertex 0.6735513 1.321305 0.0
vertex 0.5097042 1.316783 0.0
vertex 0.5960558 1.372941 0.0
endloop
endfacet
facet normal 0.0 0.0 -1.0
outer loop
vertex 0.6735513 1.321305 0.0
vertex 0.5960558 1.372941 0.0
vertex 0.7780836 1.374375 0.0
endloop
endfacet
facet normal -0.0 0.0 -0.9999999999999999
outer loop
vertex 0.7780836 1.374375 0.0
vertex 0.5960558 1.372941 0.0
vertex 0.7005881 1.426011 0.0
endloop
endfacet
facet normal 0.0 0.0 -1.0
outer loop
vertex 0.7780836 1.374375 0.0
vertex 0.7005881 1.426011 0.0
vertex 0.943812 1.441373 0.0
endloop
endfacet
facet normal -0.0 0.0 -1.0
outer loop
vertex 0.943812 1.441373 0.0
vertex 0.7005881 1.426011 0.0
vertex 0.8663165 1.493009 0.0
endloop
endfacet
facet normal 0.0 0.0 -1.0
outer loop
vertex 0.943812 1.441373 0.0
vertex 0.8663165 1.493009 0.0
vertex 1.180148 1.52929 0.0
endloop
endfacet
facet normal -0.0 0.0 -1.0
outer loop
vertex 1.180148 1.52929 0.0
vertex 0.8663165 1.493009 0.0
vertex 1.102653 1.580926 0.0
endloop
endfacet
facet normal 0.0 0.0 -1.0
outer loop
vertex 1.180148 1.52929 0.0
vertex 1.102653 1.580926 0.0
vertex 1.308689 1.586153 0.0
endloop
endfacet
facet normal -0.0 0.0 -1.0
outer loop
vertex 1.308689 1.586153 0.0
vertex 1.102653 1.580926 0.0
vertex 1.231194 1.637789 0.0
endloop
endfacet
facet normal 0.0 0.0 -1.0
outer loop
vertex 1.308689 1.586153 0.0
vertex 1.231194 1.637789 0.0
vertex 1.40961 1.642852 0.0
endloop
endfacet
facet normal -0.0 0.0 -1.0
outer loop
vertex 1.40961 1.642852 0.0
vertex 1.231194 1.637789 0.0
vertex 1.332114 1.694488 0.0
endloop
endfacet
facet normal 0.0 0.0 -1.0
outer loop
vertex 1.40961 1.642852 0.0
vertex 1.332114 1.694488 0.0
vertex 1.499456 1.709552 0.0
endloop
endfacet
facet normal -0.0 0.0 -1.0
outer loop
vertex 1.499456 1.709552 0.0
vertex 1.332114 1.694488 0.0
vertex 1.42196 1.761188 0.0
endloop
endfacet
facet normal 0.0 0.0 -1.0
outer loop
vertex 1.499456 1.709552 0.0
vertex 1.42196 1.761188 0.0
vertex 1.565582 1.775642 0.0
endloop
endfacet
facet normal -0.0 0.0 -1.0
outer loop
vertex 1.565582 1.775642 0.0
vertex 1.42196 1.761188 0.0
vertex 1.488086 1.827278 0.0
endloop
endfacet
facet normal 0.0 0.0 -1.0
outer loop
vertex 1.565582 1.775642 0.0
vertex 1.488086 1.827278 0.0
vertex 1.619532 1.848718 0.0
endloop
endfacet
facet normal -0.0 0.0 -1.0
outer loop
vertex 1.619532 1.848718 0.0
vertex 1.488086 1.827278 0.0
vertex 1.542037 1.900354 0.0
endloop
endfacet
facet normal 0.0 0.0 -1.0
outer loop
vertex 1.619532 1.848718 0.0
vertex 1.542037 1.900354 0.0
vertex 1.666142 1.938982 0.0
endloop
endfacet
facet normal -0.0 0.0 -1.0
outer loop
vertex 1.666142 1.938982 0.0
vertex 1.542037 1.900354 0.0
vertex 1.588647 1.990618 0.0
endloop
endfacet
facet normal 0.0 0.0 -1.0
outer loop
vertex 1.666142 1.938982 0.0
vertex 1.588647 1.990618 0.0
vertex 1.699434 2.040032 0.0
endloop
endfacet
facet normal -0.0 0.0 -1.0
outer loop
vertex 1.699434 2.040032 0.0
vertex 1.588647 1.990618 0.0
vertex 1.621939 2.091668 0.0
endloop
endfacet
facet normal 0.0 0.0 -1.0
outer loop
vertex 1.699434 2.040032 0.0
vertex 1.621939 2.091668 0.0
vertex 1.71909 2.148504 0.0
endloop
endfacet
facet normal -0.0 0.0 -1.0
outer loop
vertex 1.71909 2.148504 0.0
vertex 1.621939 2.091668 0.0
vertex 1.641595 2.20014 0.0
endloop
endfacet
facet normal 0.0 0.0 -1.0
outer loop
vertex 1.71909 2.148504 0.0
vertex 1.641595 2.20014 0.0
vertex 1.720701 2.162977 0.0
endloop
endfacet
facet normal 0.0 0.0 -1.0
outer loop
vertex 1.720701 2.162977 0.0
vertex 1.641595 2.20014 0.0
vertex 1.643205 2.214613 0.0
endloop
endfacet
facet normal 0.7071061853571595 0.7071073770154335 0.0
outer loop
vertex 0.7502589 1.447636 0.6878307
vertex 0.809597 1.388298 0.6878307
vertex 0.7502589 1.447636 0.4558779
endloop
endfacet
facet normal 0.7071061853571595 0.7071073770154335 0.0
outer loop
vertex 0.7502589 1.447636 0.4558779
vertex 0.809597 1.388298 0.6878307
vertex 0.809597 1.388298 0.4558779
endloop
endfacet
facet normal 0.0 0.0 -1.0
outer loop
vertex 0.809597 1.388298 0.6878307
vertex 0.7502589 1.447636 0.6878307
vertex 0.943812 1.441373 0.6878307
endloop
endfacet
facet normal 0.0 0.0 -1.0
outer loop
vertex 0.943812 1.441373 0.6878307
vertex 0.7502589 1.447636 0.6878307
vertex 0.8663165 1.493009 0.6878307
endloop
endfacet
facet normal 0.0 0.0 -1.0
outer loop
vertex 0.943812 1.441373 0.6878307
vertex 0.8663165 1.493009 0.6878307
vertex 1.177486 1.528226 0.6878307
endloop
endfacet
facet normal -0.0 0.0 -1.0
outer loop
vertex 1.177486 1.528226 0.6878307
vertex 0.8663165 1.493009 0.6878307
vertex 1.102653 1.580926 0.6878307
endloop
endfacet
facet normal 0.0 0.0 -1.0
outer loop
vertex 1.177486 1.528226 0.6878307
vertex 1.102653 1.580926 0.6878307
vertex 1.118414 1.587298 0.6878307
endloop
endfacet
facet normal -0.7071067811865476 -0.7071067811865476 0.0
outer loop
vertex 1.118414 1.587298 0.4558779
vertex 1.177486 1.528226 0.4558779
vertex 1.118414 1.587298 0.6878307
endloop
endfacet
facet normal -0.7071067811865476 -0.7071067811865476 0.0
outer loop
vertex 1.118414 1.587298 0.6878307
vertex 1.177486 1.528226 0.4558779
vertex 1.177486 1.528226 0.6878307
endloop
endfacet
facet normal -0.0 0.0 1.0
outer loop
vertex 0.7502589 1.447636 0.4558779
vertex 0.809597 1.388298 0.4558779
vertex 0.8663165 1.493009 0.4558779
endloop
endfacet
facet normal -0.0 0.0 1.0
outer loop
vertex 0.8663165 1.493009 0.4558779
vertex 0.809597 1.388298 0.4558779
vertex 0.943812 1.441373 0.4558779
endloop
endfacet
facet normal -0.0 0.0 1.0
outer loop
vertex 0.8663165 1.493009 0.4558779
vertex 0.943812 1.441373 0.4558779
vertex 1.102653 1.580926 0.4558779
endloop
endfacet
facet normal -0.0 0.0 1.0
outer loop
vertex 1.102653 1.580926 0.4558779
vertex 0.943812 1.441373 0.4558779
vertex 1.177486 1.528226 0.4558779
endloop
endfacet
facet normal -0.0 -0.0 1.0
outer loop
vertex 1.102653 1.580926 0.4558779
vertex 1.177486 1.528226 0.4558779
vertex 1.118414 1.587298 0.4558779
endloop
endfacet
endsolid