solid wall_type_3_large_angled
   facet normal 0.000000e+000 0.000000e+000 -1.000000e+000
      outer loop
         vertex 1.754037e+000 2.065733e+000 0.000000e+000
         vertex 3.182965e-001 6.299925e-001 0.000000e+000
         vertex 1.579479e+000 2.240291e+000 0.000000e+000
      endloop
   endfacet
   facet normal 0.000000e+000 0.000000e+000 -1.000000e+000
      outer loop
         vertex 1.579479e+000 2.240291e+000 0.000000e+000
         vertex 3.182965e-001 6.299925e-001 0.000000e+000
         vertex 1.437382e-001 8.045508e-001 0.000000e+000
      endloop
   endfacet
   facet normal 7.071068e-001 7.071068e-001 0.000000e+000
      outer loop
         vertex 2.618612e+000 3.279424e+000 2.000000e+000
         vertex 2.793170e+000 3.104866e+000 2.000000e+000
         vertex 2.618612e+000 3.279424e+000 0.000000e+000
      endloop
   endfacet
   facet normal 7.071068e-001 7.071068e-001 0.000000e+000
      outer loop
         vertex 2.618612e+000 3.279424e+000 0.000000e+000
         vertex 2.793170e+000 3.104866e+000 2.000000e+000
         vertex 2.793170e+000 3.104866e+000 0.000000e+000
      endloop
   endfacet
   facet normal -7.071068e-001 7.071068e-001 0.000000e+000
      outer loop
         vertex 2.618612e+000 3.279424e+000 0.000000e+000
         vertex 1.895929e+000 2.556741e+000 0.000000e+000
         vertex 2.618612e+000 3.279424e+000 2.000000e+000
      endloop
   endfacet
   facet normal -7.071068e-001 7.071068e-001 0.000000e+000
      outer loop
         vertex 2.618612e+000 3.279424e+000 2.000000e+000
         vertex 1.895929e+000 2.556741e+000 0.000000e+000
         vertex 1.895929e+000 2.556741e+000 8.132766e-001
      endloop
   endfacet
   facet normal -7.071068e-001 7.071068e-001 0.000000e+000
      outer loop
         vertex 2.618612e+000 3.279424e+000 2.000000e+000
         vertex 1.895929e+000 2.556741e+000 8.132766e-001
         vertex 1.437382e-001 8.045508e-001 2.000000e+000
      endloop
   endfacet
   facet normal -7.071068e-001 7.071068e-001 0.000000e+000
      outer loop
         vertex 1.437382e-001 8.045508e-001 2.000000e+000
         vertex 1.895929e+000 2.556741e+000 8.132766e-001
         vertex 1.579479e+000 2.240291e+000 8.132766e-001
      endloop
   endfacet
   facet normal -7.071068e-001 7.071068e-001 0.000000e+000
      outer loop
         vertex 7.685411e-001 1.429354e+000 6.878307e-001
         vertex 1.437382e-001 8.045508e-001 2.000000e+000
         vertex 1.022450e+000 1.683262e+000 6.878307e-001
      endloop
   endfacet
   facet normal -7.071068e-001 7.071068e-001 0.000000e+000
      outer loop
         vertex 1.022450e+000 1.683262e+000 6.878307e-001
         vertex 1.437382e-001 8.045508e-001 2.000000e+000
         vertex 1.579479e+000 2.240291e+000 8.132766e-001
      endloop
   endfacet
   facet normal -7.071068e-001 7.071068e-001 0.000000e+000
      outer loop
         vertex 1.022450e+000 1.683262e+000 6.878307e-001
         vertex 1.579479e+000 2.240291e+000 8.132766e-001
         vertex 1.022450e+000 1.683262e+000 4.558779e-001
      endloop
   endfacet
   facet normal -7.071068e-001 7.071068e-001 0.000000e+000
      outer loop
         vertex 1.022450e+000 1.683262e+000 4.558779e-001
         vertex 1.579479e+000 2.240291e+000 8.132766e-001
         vertex 1.579479e+000 2.240291e+000 0.000000e+000
      endloop
   endfacet
   facet normal -7.071068e-001 7.071068e-001 0.000000e+000
      outer loop
         vertex 1.022450e+000 1.683262e+000 4.558779e-001
         vertex 1.579479e+000 2.240291e+000 0.000000e+000
         vertex 7.685411e-001 1.429354e+000 4.558779e-001
      endloop
   endfacet
   facet normal -7.071068e-001 7.071068e-001 0.000000e+000
      outer loop
         vertex 7.685411e-001 1.429354e+000 4.558779e-001
         vertex 1.579479e+000 2.240291e+000 0.000000e+000
         vertex 1.437382e-001 8.045508e-001 0.000000e+000
      endloop
   endfacet
   facet normal -7.071068e-001 7.071068e-001 0.000000e+000
      outer loop
         vertex 7.685411e-001 1.429354e+000 4.558779e-001
         vertex 1.437382e-001 8.045508e-001 0.000000e+000
         vertex 7.685411e-001 1.429354e+000 6.878307e-001
      endloop
   endfacet
   facet normal -7.071068e-001 7.071068e-001 0.000000e+000
      outer loop
         vertex 7.685411e-001 1.429354e+000 6.878307e-001
         vertex 1.437382e-001 8.045508e-001 0.000000e+000
         vertex 1.437382e-001 8.045508e-001 2.000000e+000
      endloop
   endfacet
   facet normal -7.071068e-001 -7.071068e-001 0.000000e+000
      outer loop
         vertex 3.182965e-001 6.299925e-001 2.000000e+000
         vertex 1.437382e-001 8.045508e-001 2.000000e+000
         vertex 3.182965e-001 6.299925e-001 0.000000e+000
      endloop
   endfacet
   facet normal -7.071068e-001 -7.071068e-001 0.000000e+000
      outer loop
         vertex 3.182965e-001 6.299925e-001 0.000000e+000
         vertex 1.437382e-001 8.045508e-001 2.000000e+000
         vertex 1.437382e-001 8.045508e-001 0.000000e+000
      endloop
   endfacet
   facet normal 7.071068e-001 -7.071068e-001 0.000000e+000
      outer loop
         vertex 2.070487e+000 2.382183e+000 0.000000e+000
         vertex 2.793170e+000 3.104866e+000 0.000000e+000
         vertex 2.070487e+000 2.382183e+000 8.132766e-001
      endloop
   endfacet
   facet normal 7.071068e-001 -7.071068e-001 0.000000e+000
      outer loop
         vertex 2.070487e+000 2.382183e+000 8.132766e-001
         vertex 2.793170e+000 3.104866e+000 0.000000e+000
         vertex 2.793170e+000 3.104866e+000 2.000000e+000
      endloop
   endfacet
   facet normal 7.071068e-001 -7.071068e-001 0.000000e+000
      outer loop
         vertex 2.070487e+000 2.382183e+000 8.132766e-001
         vertex 2.793170e+000 3.104866e+000 2.000000e+000
         vertex 1.754037e+000 2.065733e+000 8.132766e-001
      endloop
   endfacet
   facet normal 7.071068e-001 -7.071068e-001 0.000000e+000
      outer loop
         vertex 1.754037e+000 2.065733e+000 0.000000e+000
         vertex 1.754037e+000 2.065733e+000 8.132766e-001
         vertex 1.197008e+000 1.508704e+000 6.878307e-001
      endloop
   endfacet
   facet normal 7.071068e-001 -7.071068e-001 0.000000e+000
      outer loop
         vertex 1.197008e+000 1.508704e+000 6.878307e-001
         vertex 1.754037e+000 2.065733e+000 8.132766e-001
         vertex 2.793170e+000 3.104866e+000 2.000000e+000
      endloop
   endfacet
   facet normal 7.071068e-001 -7.071068e-001 0.000000e+000
      outer loop
         vertex 1.197008e+000 1.508704e+000 6.878307e-001
         vertex 2.793170e+000 3.104866e+000 2.000000e+000
         vertex 9.430994e-001 1.254795e+000 6.878307e-001
      endloop
   endfacet
   facet normal 7.071068e-001 -7.071068e-001 0.000000e+000
      outer loop
         vertex 9.430994e-001 1.254795e+000 6.878307e-001
         vertex 2.793170e+000 3.104866e+000 2.000000e+000
         vertex 3.182965e-001 6.299925e-001 2.000000e+000
      endloop
   endfacet
   facet normal 7.071068e-001 -7.071068e-001 0.000000e+000
      outer loop
         vertex 9.430994e-001 1.254795e+000 6.878307e-001
         vertex 3.182965e-001 6.299925e-001 2.000000e+000
         vertex 9.430994e-001 1.254795e+000 4.558779e-001
      endloop
   endfacet
   facet normal 7.071068e-001 -7.071068e-001 0.000000e+000
      outer loop
         vertex 9.430994e-001 1.254795e+000 4.558779e-001
         vertex 3.182965e-001 6.299925e-001 2.000000e+000
         vertex 3.182965e-001 6.299925e-001 0.000000e+000
      endloop
   endfacet
   facet normal 7.071068e-001 -7.071068e-001 0.000000e+000
      outer loop
         vertex 9.430994e-001 1.254795e+000 4.558779e-001
         vertex 3.182965e-001 6.299925e-001 0.000000e+000
         vertex 1.197008e+000 1.508704e+000 4.558779e-001
      endloop
   endfacet
   facet normal 7.071068e-001 -7.071068e-001 0.000000e+000
      outer loop
         vertex 1.197008e+000 1.508704e+000 4.558779e-001
         vertex 3.182965e-001 6.299925e-001 0.000000e+000
         vertex 1.754037e+000 2.065733e+000 0.000000e+000
      endloop
   endfacet
   facet normal 7.071068e-001 -7.071068e-001 0.000000e+000
      outer loop
         vertex 1.197008e+000 1.508704e+000 4.558779e-001
         vertex 1.754037e+000 2.065733e+000 0.000000e+000
         vertex 1.197008e+000 1.508704e+000 6.878307e-001
      endloop
   endfacet
   facet normal 0.000000e+000 0.000000e+000 1.000000e+000
      outer loop
         vertex 1.437382e-001 8.045508e-001 2.000000e+000
         vertex 3.182965e-001 6.299925e-001 2.000000e+000
         vertex 2.618612e+000 3.279424e+000 2.000000e+000
      endloop
   endfacet
   facet normal 0.000000e+000 0.000000e+000 1.000000e+000
      outer loop
         vertex 2.618612e+000 3.279424e+000 2.000000e+000
         vertex 3.182965e-001 6.299925e-001 2.000000e+000
         vertex 2.793170e+000 3.104866e+000 2.000000e+000
      endloop
   endfacet
   facet normal 0.000000e+000 0.000000e+000 -1.000000e+000
      outer loop
         vertex 1.895929e+000 2.556741e+000 0.000000e+000
         vertex 2.618612e+000 3.279424e+000 0.000000e+000
         vertex 2.070487e+000 2.382183e+000 0.000000e+000
      endloop
   endfacet
   facet normal 0.000000e+000 0.000000e+000 -1.000000e+000
      outer loop
         vertex 2.070487e+000 2.382183e+000 0.000000e+000
         vertex 2.618612e+000 3.279424e+000 0.000000e+000
         vertex 2.793170e+000 3.104866e+000 0.000000e+000
      endloop
   endfacet
   facet normal 7.071068e-001 7.071068e-001 0.000000e+000
      outer loop
         vertex 1.754037e+000 2.065733e+000 8.132766e-001
         vertex 1.754037e+000 2.065733e+000 0.000000e+000
         vertex 1.579479e+000 2.240291e+000 8.132766e-001
      endloop
   endfacet
   facet normal 7.071068e-001 7.071068e-001 0.000000e+000
      outer loop
         vertex 1.579479e+000 2.240291e+000 8.132766e-001
         vertex 1.754037e+000 2.065733e+000 0.000000e+000
         vertex 1.579479e+000 2.240291e+000 0.000000e+000
      endloop
   endfacet
   facet normal -7.071068e-001 -7.071068e-001 0.000000e+000
      outer loop
         vertex 1.895929e+000 2.556741e+000 8.132766e-001
         vertex 1.895929e+000 2.556741e+000 0.000000e+000
         vertex 2.070487e+000 2.382183e+000 8.132766e-001
      endloop
   endfacet
   facet normal -7.071068e-001 -7.071068e-001 0.000000e+000
      outer loop
         vertex 2.070487e+000 2.382183e+000 8.132766e-001
         vertex 1.895929e+000 2.556741e+000 0.000000e+000
         vertex 2.070487e+000 2.382183e+000 0.000000e+000
      endloop
   endfacet
   facet normal 0.000000e+000 0.000000e+000 -1.000000e+000
      outer loop
         vertex 1.895929e+000 2.556741e+000 8.132766e-001
         vertex 2.070487e+000 2.382183e+000 8.132766e-001
         vertex 1.579479e+000 2.240291e+000 8.132766e-001
      endloop
   endfacet
   facet normal 0.000000e+000 0.000000e+000 -1.000000e+000
      outer loop
         vertex 1.579479e+000 2.240291e+000 8.132766e-001
         vertex 2.070487e+000 2.382183e+000 8.132766e-001
         vertex 1.754037e+000 2.065733e+000 8.132766e-001
      endloop
   endfacet
   facet normal 7.071068e-001 7.071068e-001 0.000000e+000
      outer loop
         vertex 7.685411e-001 1.429354e+000 6.878307e-001
         vertex 9.430994e-001 1.254795e+000 6.878307e-001
         vertex 7.685411e-001 1.429354e+000 4.558779e-001
      endloop
   endfacet
   facet normal 7.071068e-001 7.071068e-001 0.000000e+000
      outer loop
         vertex 7.685411e-001 1.429354e+000 4.558779e-001
         vertex 9.430994e-001 1.254795e+000 6.878307e-001
         vertex 9.430994e-001 1.254795e+000 4.558779e-001
      endloop
   endfacet
   facet normal 0.000000e+000 0.000000e+000 -1.000000e+000
      outer loop
         vertex 1.022450e+000 1.683262e+000 6.878307e-001
         vertex 1.197008e+000 1.508704e+000 6.878307e-001
         vertex 7.685411e-001 1.429354e+000 6.878307e-001
      endloop
   endfacet
   facet normal 0.000000e+000 0.000000e+000 -1.000000e+000
      outer loop
         vertex 7.685411e-001 1.429354e+000 6.878307e-001
         vertex 1.197008e+000 1.508704e+000 6.878307e-001
         vertex 9.430994e-001 1.254795e+000 6.878307e-001
      endloop
   endfacet
   facet normal -7.071068e-001 -7.071068e-001 0.000000e+000
      outer loop
         vertex 1.022450e+000 1.683262e+000 4.558779e-001
         vertex 1.197008e+000 1.508704e+000 4.558779e-001
         vertex 1.022450e+000 1.683262e+000 6.878307e-001
      endloop
   endfacet
   facet normal -7.071068e-001 -7.071068e-001 0.000000e+000
      outer loop
         vertex 1.022450e+000 1.683262e+000 6.878307e-001
         vertex 1.197008e+000 1.508704e+000 4.558779e-001
         vertex 1.197008e+000 1.508704e+000 6.878307e-001
      endloop
   endfacet
   facet normal 0.000000e+000 0.000000e+000 1.000000e+000
      outer loop
         vertex 7.685411e-001 1.429354e+000 4.558779e-001
         vertex 9.430994e-001 1.254795e+000 4.558779e-001
         vertex 1.022450e+000 1.683262e+000 4.558779e-001
      endloop
   endfacet
   facet normal 0.000000e+000 0.000000e+000 1.000000e+000
      outer loop
         vertex 1.022450e+000 1.683262e+000 4.558779e-001
         vertex 9.430994e-001 1.254795e+000 4.558779e-001
         vertex 1.197008e+000 1.508704e+000 4.558779e-001
      endloop
   endfacet
endsolid