solid wall_type_1_large_straight
   facet normal 0.000000e+000 0.000000e+000 -1.000000e+000
      outer loop
         vertex 1.960985e+000 1.569099e-001 0.000000e+000
         vertex 1.960985e+000 -1.292587e-001 0.000000e+000
         vertex 1.833548e+000 2.074936e-001 0.000000e+000
      endloop
   endfacet
   facet normal 0.000000e+000 0.000000e+000 -1.000000e+000
      outer loop
         vertex 1.833548e+000 2.074936e-001 0.000000e+000
         vertex 1.960985e+000 -1.292587e-001 0.000000e+000
         vertex 1.855421e+000 -8.477454e-002 0.000000e+000
      endloop
   endfacet
   facet normal 0.000000e+000 0.000000e+000 -1.000000e+000
      outer loop
         vertex 1.833548e+000 2.074936e-001 0.000000e+000
         vertex 1.855421e+000 -8.477454e-002 0.000000e+000
         vertex 1.598233e+000 3.179620e-001 0.000000e+000
      endloop
   endfacet
   facet normal 0.000000e+000 0.000000e+000 -1.000000e+000
      outer loop
         vertex 1.598233e+000 3.179620e-001 0.000000e+000
         vertex 1.855421e+000 -8.477454e-002 0.000000e+000
         vertex 1.597168e+000 4.468758e-002 0.000000e+000
      endloop
   endfacet
   facet normal 0.000000e+000 0.000000e+000 -1.000000e+000
      outer loop
         vertex -9.656111e-002 2.402270e-001 0.000000e+000
         vertex -1.514302e-001 4.490208e-001 0.000000e+000
         vertex 5.785199e-002 3.454336e-001 0.000000e+000
      endloop
   endfacet
   facet normal 0.000000e+000 0.000000e+000 -1.000000e+000
      outer loop
         vertex 5.785199e-002 3.454336e-001 0.000000e+000
         vertex -1.514302e-001 4.490208e-001 0.000000e+000
         vertex 5.986712e-003 5.639951e-001 0.000000e+000
      endloop
   endfacet
   facet normal 0.000000e+000 0.000000e+000 -1.000000e+000
      outer loop
         vertex 5.785199e-002 3.454336e-001 0.000000e+000
         vertex 5.986712e-003 5.639951e-001 0.000000e+000
         vertex 2.088105e-001 4.158969e-001 0.000000e+000
      endloop
   endfacet
   facet normal 0.000000e+000 0.000000e+000 -1.000000e+000
      outer loop
         vertex 2.088105e-001 4.158969e-001 0.000000e+000
         vertex 5.986712e-003 5.639951e-001 0.000000e+000
         vertex 1.600480e-001 6.433387e-001 0.000000e+000
      endloop
   endfacet
   facet normal 0.000000e+000 0.000000e+000 -1.000000e+000
      outer loop
         vertex 2.088105e-001 4.158969e-001 0.000000e+000
         vertex 1.600480e-001 6.433387e-001 0.000000e+000
         vertex 3.568991e-001 4.557142e-001 0.000000e+000
      endloop
   endfacet
   facet normal 0.000000e+000 0.000000e+000 -1.000000e+000
      outer loop
         vertex 3.568991e-001 4.557142e-001 0.000000e+000
         vertex 1.600480e-001 6.433387e-001 0.000000e+000
         vertex 3.110583e-001 6.911753e-001 0.000000e+000
      endloop
   endfacet
   facet normal 0.000000e+000 0.000000e+000 -1.000000e+000
      outer loop
         vertex 3.568991e-001 4.557142e-001 0.000000e+000
         vertex 3.110583e-001 6.911753e-001 0.000000e+000
         vertex 5.054711e-001 4.687109e-001 0.000000e+000
      endloop
   endfacet
   facet normal 0.000000e+000 0.000000e+000 -1.000000e+000
      outer loop
         vertex 5.054711e-001 4.687109e-001 0.000000e+000
         vertex 3.110583e-001 6.911753e-001 0.000000e+000
         vertex 4.622433e-001 7.116773e-001 0.000000e+000
      endloop
   endfacet
   facet normal 0.000000e+000 0.000000e+000 -1.000000e+000
      outer loop
         vertex 5.054711e-001 4.687109e-001 0.000000e+000
         vertex 4.622433e-001 7.116773e-001 0.000000e+000
         vertex 6.488094e-001 4.581380e-001 0.000000e+000
      endloop
   endfacet
   facet normal 0.000000e+000 0.000000e+000 -1.000000e+000
      outer loop
         vertex 6.488094e-001 4.581380e-001 0.000000e+000
         vertex 4.622433e-001 7.116773e-001 0.000000e+000
         vertex 6.174580e-001 7.070459e-001 0.000000e+000
      endloop
   endfacet
   facet normal 0.000000e+000 0.000000e+000 -1.000000e+000
      outer loop
         vertex 6.488094e-001 4.581380e-001 0.000000e+000
         vertex 6.174580e-001 7.070459e-001 0.000000e+000
         vertex 8.108827e-001 4.223440e-001 0.000000e+000
      endloop
   endfacet
   facet normal 0.000000e+000 0.000000e+000 -1.000000e+000
      outer loop
         vertex 8.108827e-001 4.223440e-001 0.000000e+000
         vertex 6.174580e-001 7.070459e-001 0.000000e+000
         vertex 7.957011e-001 6.739488e-001 0.000000e+000
      endloop
   endfacet
   facet normal 0.000000e+000 0.000000e+000 -1.000000e+000
      outer loop
         vertex 8.108827e-001 4.223440e-001 0.000000e+000
         vertex 7.957011e-001 6.739488e-001 0.000000e+000
         vertex 9.875545e-001 3.595923e-001 0.000000e+000
      endloop
   endfacet
   facet normal 0.000000e+000 0.000000e+000 -1.000000e+000
      outer loop
         vertex 9.875545e-001 3.595923e-001 0.000000e+000
         vertex 7.957011e-001 6.739488e-001 0.000000e+000
         vertex 9.749721e-001 6.162320e-001 0.000000e+000
      endloop
   endfacet
   facet normal 0.000000e+000 0.000000e+000 -1.000000e+000
      outer loop
         vertex 9.875545e-001 3.595923e-001 0.000000e+000
         vertex 9.749721e-001 6.162320e-001 0.000000e+000
         vertex 1.235267e+000 2.419898e-001 0.000000e+000
      endloop
   endfacet
   facet normal 0.000000e+000 0.000000e+000 -1.000000e+000
      outer loop
         vertex 1.235267e+000 2.419898e-001 0.000000e+000
         vertex 9.749721e-001 6.162320e-001 0.000000e+000
         vertex 1.227250e+000 5.057918e-001 0.000000e+000
      endloop
   endfacet
   facet normal 0.000000e+000 0.000000e+000 -1.000000e+000
      outer loop
         vertex 1.235267e+000 2.419898e-001 0.000000e+000
         vertex 1.227250e+000 5.057918e-001 0.000000e+000
         vertex 1.597168e+000 4.468758e-002 0.000000e+000
      endloop
   endfacet
   facet normal 0.000000e+000 0.000000e+000 -1.000000e+000
      outer loop
         vertex 1.597168e+000 4.468758e-002 0.000000e+000
         vertex 1.227250e+000 5.057918e-001 0.000000e+000
         vertex 1.596980e+000 3.185897e-001 0.000000e+000
      endloop
   endfacet
   facet normal 0.000000e+000 0.000000e+000 -1.000000e+000
      outer loop
         vertex 1.597168e+000 4.468758e-002 0.000000e+000
         vertex 1.596980e+000 3.185897e-001 0.000000e+000
         vertex 1.598233e+000 3.179620e-001 0.000000e+000
      endloop
   endfacet
   facet normal -9.671620e-001 -2.541609e-001 0.000000e+000
      outer loop
         vertex -9.656111e-002 2.402270e-001 2.036000e+000
         vertex -1.514302e-001 4.490208e-001 2.036000e+000
         vertex -9.656111e-002 2.402270e-001 0.000000e+000
      endloop
   endfacet
   facet normal -9.671620e-001 -2.541609e-001 0.000000e+000
      outer loop
         vertex -9.656111e-002 2.402270e-001 0.000000e+000
         vertex -1.514302e-001 4.490208e-001 2.036000e+000
         vertex -1.514302e-001 4.490208e-001 0.000000e+000
      endloop
   endfacet
   facet normal 2.199073e-002 -9.997582e-001 0.000000e+000
      outer loop
         vertex 2.408513e+000 -2.277453e-001 8.132766e-001
         vertex 2.408513e+000 -2.277453e-001 0.000000e+000
         vertex 2.526165e+000 -2.227913e-001 0.000000e+000
      endloop
   endfacet
   facet normal 1.469705e-002 -9.998920e-001 0.000000e+000
      outer loop
         vertex 2.386828e+000 -2.270885e-001 8.132766e-001
         vertex 2.408513e+000 -2.277453e-001 8.132766e-001
         vertex 2.526165e+000 -2.227913e-001 2.036000e+000
      endloop
   endfacet
   facet normal -2.314966e-001 -9.728357e-001 0.000000e+000
      outer loop
         vertex 2.050415e+000 -1.616250e-001 2.036000e+000
         vertex 2.225495e+000 -2.079398e-001 8.132766e-001
         vertex 2.225495e+000 -2.079398e-001 2.036000e+000
      endloop
   endfacet
   facet normal -1.402262e-001 -9.901195e-001 0.000000e+000
      outer loop
         vertex 2.225495e+000 -2.079398e-001 2.036000e+000
         vertex 2.225495e+000 -2.079398e-001 8.132766e-001
         vertex 2.386828e+000 -2.270885e-001 8.132766e-001
      endloop
   endfacet
   facet normal -9.074939e-002 -9.958737e-001 0.000000e+000
      outer loop
         vertex 2.225495e+000 -2.079398e-001 2.036000e+000
         vertex 2.386828e+000 -2.270885e-001 8.132766e-001
         vertex 2.386828e+000 -2.270885e-001 2.036000e+000
      endloop
   endfacet
   facet normal 7.397800e-003 -9.999726e-001 0.000000e+000
      outer loop
         vertex 2.386828e+000 -2.270885e-001 2.036000e+000
         vertex 2.386828e+000 -2.270885e-001 8.132766e-001
         vertex 2.526165e+000 -2.227913e-001 2.036000e+000
      endloop
   endfacet
   facet normal -3.795643e-001 -9.251654e-001 0.000000e+000
      outer loop
         vertex 1.855421e+000 -8.477454e-002 0.000000e+000
         vertex 1.960985e+000 -1.292587e-001 0.000000e+000
         vertex 1.960985e+000 -1.292587e-001 8.132766e-001
      endloop
   endfacet
   facet normal -4.538896e-001 -8.910579e-001 0.000000e+000
      outer loop
         vertex 1.173227e+000 2.738257e-001 6.878307e-001
         vertex 1.173227e+000 2.738257e-001 4.558779e-001
         vertex 1.235267e+000 2.419898e-001 0.000000e+000
      endloop
   endfacet
   facet normal -4.319430e-001 -9.019009e-001 0.000000e+000
      outer loop
         vertex 1.235267e+000 2.419898e-001 0.000000e+000
         vertex 1.173227e+000 2.738257e-001 4.558779e-001
         vertex 9.875545e-001 3.595923e-001 0.000000e+000
      endloop
   endfacet
   facet normal -4.049154e-001 -9.143541e-001 0.000000e+000
      outer loop
         vertex 9.875545e-001 3.595923e-001 0.000000e+000
         vertex 1.173227e+000 2.738257e-001 4.558779e-001
         vertex 9.875545e-001 3.595923e-001 4.558779e-001
      endloop
   endfacet
   facet normal -3.483780e-001 -9.373541e-001 0.000000e+000
      outer loop
         vertex 9.875545e-001 3.595923e-001 0.000000e+000
         vertex 9.875545e-001 3.595923e-001 4.558779e-001
         vertex 8.108827e-001 4.223440e-001 0.000000e+000
      endloop
   endfacet
   facet normal -3.145919e-001 -9.492270e-001 0.000000e+000
      outer loop
         vertex 8.108827e-001 4.223440e-001 0.000000e+000
         vertex 9.875545e-001 3.595923e-001 4.558779e-001
         vertex 8.141463e-001 4.213919e-001 4.558779e-001
      endloop
   endfacet
   facet normal -2.804483e-001 -9.598691e-001 0.000000e+000
      outer loop
         vertex 8.108827e-001 4.223440e-001 0.000000e+000
         vertex 8.141463e-001 4.213919e-001 4.558779e-001
         vertex 8.141463e-001 4.213919e-001 6.878307e-001
      endloop
   endfacet
   facet normal -4.319430e-001 -9.019009e-001 0.000000e+000
      outer loop
         vertex 1.173227e+000 2.738257e-001 6.878307e-001
         vertex 1.235267e+000 2.419898e-001 2.036000e+000
         vertex 9.875545e-001 3.595923e-001 6.878307e-001
      endloop
   endfacet
   facet normal -4.097184e-001 -9.122120e-001 0.000000e+000
      outer loop
         vertex 9.875545e-001 3.595923e-001 6.878307e-001
         vertex 1.235267e+000 2.419898e-001 2.036000e+000
         vertex 9.875545e-001 3.595923e-001 2.036000e+000
      endloop
   endfacet
   facet normal -3.491271e-001 -9.370754e-001 0.000000e+000
      outer loop
         vertex 9.875545e-001 3.595923e-001 6.878307e-001
         vertex 9.875545e-001 3.595923e-001 2.036000e+000
         vertex 8.141463e-001 4.213919e-001 6.878307e-001
      endloop
   endfacet
   facet normal -3.145919e-001 -9.492270e-001 0.000000e+000
      outer loop
         vertex 8.141463e-001 4.213919e-001 6.878307e-001
         vertex 9.875545e-001 3.595923e-001 2.036000e+000
         vertex 8.108827e-001 4.223440e-001 2.036000e+000
      endloop
   endfacet
   facet normal -2.796800e-001 -9.600933e-001 0.000000e+000
      outer loop
         vertex 8.141463e-001 4.213919e-001 6.878307e-001
         vertex 8.108827e-001 4.223440e-001 2.036000e+000
         vertex 8.108827e-001 4.223440e-001 0.000000e+000
      endloop
   endfacet
   facet normal -2.347963e-001 -9.720446e-001 0.000000e+000
      outer loop
         vertex 8.108827e-001 4.223440e-001 0.000000e+000
         vertex 8.108827e-001 4.223440e-001 2.036000e+000
         vertex 6.488094e-001 4.581380e-001 2.036000e+000
      endloop
   endfacet
   facet normal -1.900980e-001 -9.817651e-001 0.000000e+000
      outer loop
         vertex 8.108827e-001 4.223440e-001 0.000000e+000
         vertex 6.488094e-001 4.581380e-001 2.036000e+000
         vertex 6.488094e-001 4.581380e-001 0.000000e+000
      endloop
   endfacet
   facet normal -9.619135e-002 -9.953629e-001 0.000000e+000
      outer loop
         vertex 6.488094e-001 4.581380e-001 0.000000e+000
         vertex 6.488094e-001 4.581380e-001 2.036000e+000
         vertex 5.054711e-001 4.687109e-001 2.036000e+000
      endloop
   endfacet
   facet normal -4.693275e-002 -9.988980e-001 0.000000e+000
      outer loop
         vertex 6.488094e-001 4.581380e-001 0.000000e+000
         vertex 5.054711e-001 4.687109e-001 2.036000e+000
         vertex 5.054711e-001 4.687109e-001 0.000000e+000
      endloop
   endfacet
   facet normal 5.939389e-002 -9.982346e-001 0.000000e+000
      outer loop
         vertex 5.054711e-001 4.687109e-001 0.000000e+000
         vertex 5.054711e-001 4.687109e-001 2.036000e+000
         vertex 3.568991e-001 4.557142e-001 2.036000e+000
      endloop
   endfacet
   facet normal 1.164600e-001 -9.931954e-001 0.000000e+000
      outer loop
         vertex 5.054711e-001 4.687109e-001 0.000000e+000
         vertex 3.568991e-001 4.557142e-001 2.036000e+000
         vertex 3.568991e-001 4.557142e-001 0.000000e+000
      endloop
   endfacet
   facet normal 2.302798e-001 -9.731244e-001 0.000000e+000
      outer loop
         vertex 3.568991e-001 4.557142e-001 0.000000e+000
         vertex 3.568991e-001 4.557142e-001 2.036000e+000
         vertex 2.088105e-001 4.158969e-001 2.036000e+000
      endloop
   endfacet
   facet normal 2.870047e-001 -9.579291e-001 0.000000e+000
      outer loop
         vertex 3.568991e-001 4.557142e-001 0.000000e+000
         vertex 2.088105e-001 4.158969e-001 2.036000e+000
         vertex 2.088105e-001 4.158969e-001 0.000000e+000
      endloop
   endfacet
   facet normal 3.949062e-001 -9.187214e-001 0.000000e+000
      outer loop
         vertex 2.088105e-001 4.158969e-001 0.000000e+000
         vertex 2.088105e-001 4.158969e-001 2.036000e+000
         vertex 5.785199e-002 3.454336e-001 2.036000e+000
      endloop
   endfacet
   facet normal 4.461700e-001 -8.949482e-001 0.000000e+000
      outer loop
         vertex 2.088105e-001 4.158969e-001 0.000000e+000
         vertex 5.785199e-002 3.454336e-001 2.036000e+000
         vertex 5.785199e-002 3.454336e-001 0.000000e+000
      endloop
   endfacet
   facet normal 5.391124e-001 -8.422338e-001 0.000000e+000
      outer loop
         vertex 5.785199e-002 3.454336e-001 0.000000e+000
         vertex 5.785199e-002 3.454336e-001 2.036000e+000
         vertex -9.656111e-002 2.402270e-001 2.036000e+000
      endloop
   endfacet
   facet normal 5.810995e-001 -8.138325e-001 0.000000e+000
      outer loop
         vertex 5.785199e-002 3.454336e-001 0.000000e+000
         vertex -9.656111e-002 2.402270e-001 2.036000e+000
         vertex -9.656111e-002 2.402270e-001 0.000000e+000
      endloop
   endfacet
   facet normal -4.585730e-001 -8.886567e-001 0.000000e+000
      outer loop
         vertex 1.173227e+000 2.738257e-001 6.878307e-001
         vertex 1.235267e+000 2.419898e-001 0.000000e+000
         vertex 1.235267e+000 2.419898e-001 2.036000e+000
      endloop
   endfacet
   facet normal -4.670618e-001 -8.842247e-001 0.000000e+000
      outer loop
         vertex 1.235267e+000 2.419898e-001 2.036000e+000
         vertex 1.235267e+000 2.419898e-001 0.000000e+000
         vertex 1.597168e+000 4.468758e-002 0.000000e+000
      endloop
   endfacet
   facet normal -4.708714e-001 -8.822019e-001 0.000000e+000
      outer loop
         vertex 1.235267e+000 2.419898e-001 2.036000e+000
         vertex 1.597168e+000 4.468758e-002 0.000000e+000
         vertex 1.597168e+000 4.468758e-002 2.036000e+000
      endloop
   endfacet
   facet normal -4.534597e-001 -8.912768e-001 0.000000e+000
      outer loop
         vertex 1.597168e+000 4.468758e-002 2.036000e+000
         vertex 1.597168e+000 4.468758e-002 0.000000e+000
         vertex 1.855421e+000 -8.477454e-002 0.000000e+000
      endloop
   endfacet
   facet normal -4.319748e-001 -9.018857e-001 0.000000e+000
      outer loop
         vertex 1.597168e+000 4.468758e-002 2.036000e+000
         vertex 1.855421e+000 -8.477454e-002 0.000000e+000
         vertex 1.855421e+000 -8.477454e-002 2.036000e+000
      endloop
   endfacet
   facet normal -3.949667e-001 -9.186954e-001 0.000000e+000
      outer loop
         vertex 1.855421e+000 -8.477454e-002 2.036000e+000
         vertex 1.855421e+000 -8.477454e-002 0.000000e+000
         vertex 1.960985e+000 -1.292587e-001 8.132766e-001
      endloop
   endfacet
   facet normal -3.633310e-001 -9.316601e-001 0.000000e+000
      outer loop
         vertex 1.855421e+000 -8.477454e-002 2.036000e+000
         vertex 1.960985e+000 -1.292587e-001 8.132766e-001
         vertex 2.050415e+000 -1.616250e-001 2.036000e+000
      endloop
   endfacet
   facet normal -3.312697e-001 -9.435361e-001 0.000000e+000
      outer loop
         vertex 2.050415e+000 -1.616250e-001 2.036000e+000
         vertex 1.960985e+000 -1.292587e-001 8.132766e-001
         vertex 2.050415e+000 -1.616250e-001 8.132766e-001
      endloop
   endfacet
   facet normal -2.734045e-001 -9.618992e-001 0.000000e+000
      outer loop
         vertex 2.050415e+000 -1.616250e-001 2.036000e+000
         vertex 2.050415e+000 -1.616250e-001 8.132766e-001
         vertex 2.225495e+000 -2.079398e-001 8.132766e-001
      endloop
   endfacet
   facet normal 6.332570e-002 -9.979929e-001 0.000000e+000
      outer loop
         vertex 2.408513e+000 -2.277453e-001 8.132766e-001
         vertex 2.526165e+000 -2.227913e-001 0.000000e+000
         vertex 2.526165e+000 -2.227913e-001 2.036000e+000
      endloop
   endfacet
   facet normal 1.644195e-001 -9.863905e-001 0.000000e+000
      outer loop
         vertex 2.526165e+000 -2.227913e-001 2.036000e+000
         vertex 2.526165e+000 -2.227913e-001 0.000000e+000
         vertex 2.692025e+000 -1.898645e-001 0.000000e+000
      endloop
   endfacet
   facet normal 2.239726e-001 -9.745954e-001 0.000000e+000
      outer loop
         vertex 2.526165e+000 -2.227913e-001 2.036000e+000
         vertex 2.692025e+000 -1.898645e-001 0.000000e+000
         vertex 2.692025e+000 -1.898645e-001 2.036000e+000
      endloop
   endfacet
   facet normal 3.362772e-001 -9.417630e-001 0.000000e+000
      outer loop
         vertex 2.692025e+000 -1.898645e-001 2.036000e+000
         vertex 2.692025e+000 -1.898645e-001 0.000000e+000
         vertex 2.852920e+000 -1.268315e-001 0.000000e+000
      endloop
   endfacet
   facet normal 3.891596e-001 -9.211704e-001 0.000000e+000
      outer loop
         vertex 2.692025e+000 -1.898645e-001 2.036000e+000
         vertex 2.852920e+000 -1.268315e-001 0.000000e+000
         vertex 2.852920e+000 -1.268315e-001 2.036000e+000
      endloop
   endfacet
   facet normal 4.853154e-001 -8.743391e-001 0.000000e+000
      outer loop
         vertex 2.852920e+000 -1.268315e-001 2.036000e+000
         vertex 2.852920e+000 -1.268315e-001 0.000000e+000
         vertex 3.013101e+000 -3.191806e-002 0.000000e+000
      endloop
   endfacet
   facet normal 5.288811e-001 -8.486959e-001 0.000000e+000
      outer loop
         vertex 2.852920e+000 -1.268315e-001 2.036000e+000
         vertex 3.013101e+000 -3.191806e-002 0.000000e+000
         vertex 3.013101e+000 -3.191806e-002 2.036000e+000
      endloop
   endfacet
   facet normal 6.062439e-001 -7.952787e-001 0.000000e+000
      outer loop
         vertex 3.013101e+000 -3.191806e-002 2.036000e+000
         vertex 3.013101e+000 -3.191806e-002 0.000000e+000
         vertex 3.176342e+000 9.910481e-002 0.000000e+000
      endloop
   endfacet
   facet normal 6.404091e-001 -7.680340e-001 0.000000e+000
      outer loop
         vertex 3.013101e+000 -3.191806e-002 2.036000e+000
         vertex 3.176342e+000 9.910481e-002 0.000000e+000
         vertex 3.176342e+000 9.910481e-002 2.036000e+000
      endloop
   endfacet
   facet normal 7.001905e-001 -7.139561e-001 0.000000e+000
      outer loop
         vertex 3.176342e+000 9.910481e-002 2.036000e+000
         vertex 3.176342e+000 9.910481e-002 0.000000e+000
         vertex 3.345560e+000 2.723725e-001 0.000000e+000
      endloop
   endfacet
   facet normal 7.261670e-001 -6.875184e-001 0.000000e+000
      outer loop
         vertex 3.176342e+000 9.910481e-002 2.036000e+000
         vertex 3.345560e+000 2.723725e-001 0.000000e+000
         vertex 3.345560e+000 2.723725e-001 2.036000e+000
      endloop
   endfacet
   facet normal 7.690286e-001 -6.392144e-001 0.000000e+000
      outer loop
         vertex 3.345560e+000 2.723725e-001 2.036000e+000
         vertex 3.345560e+000 2.723725e-001 0.000000e+000
         vertex 3.500906e+000 4.654295e-001 0.000000e+000
      endloop
   endfacet
   facet normal 7.863731e-001 -6.177519e-001 0.000000e+000
      outer loop
         vertex 3.345560e+000 2.723725e-001 2.036000e+000
         vertex 3.500906e+000 4.654295e-001 0.000000e+000
         vertex 3.500906e+000 4.654295e-001 2.036000e+000
      endloop
   endfacet
   facet normal 9.671620e-001 2.541609e-001 0.000000e+000
      outer loop
         vertex 3.451170e+000 6.546893e-001 2.036000e+000
         vertex 3.500906e+000 4.654295e-001 2.036000e+000
         vertex 3.451170e+000 6.546893e-001 0.000000e+000
      endloop
   endfacet
   facet normal 9.671620e-001 2.541609e-001 0.000000e+000
      outer loop
         vertex 3.451170e+000 6.546893e-001 0.000000e+000
         vertex 3.500906e+000 4.654295e-001 2.036000e+000
         vertex 3.500906e+000 4.654295e-001 0.000000e+000
      endloop
   endfacet
   facet normal 3.458941e-001 9.382735e-001 0.000000e+000
      outer loop
         vertex 2.037272e+000 1.309295e-001 8.132766e-001
         vertex 1.960985e+000 1.569099e-001 8.132766e-001
         vertex 1.833548e+000 2.074936e-001 2.036000e+000
      endloop
   endfacet
   facet normal 1.342541e-001 9.909469e-001 0.000000e+000
      outer loop
         vertex 2.386676e+000 6.584360e-002 2.036000e+000
         vertex 2.219359e+000 8.483361e-002 8.132766e-001
         vertex 2.219359e+000 8.483361e-002 2.036000e+000
      endloop
   endfacet
   facet normal 2.220614e-001 9.750327e-001 0.000000e+000
      outer loop
         vertex 2.219359e+000 8.483361e-002 2.036000e+000
         vertex 2.219359e+000 8.483361e-002 8.132766e-001
         vertex 2.037272e+000 1.309295e-001 8.132766e-001
      endloop
   endfacet
   facet normal 2.623360e-001 9.649766e-001 0.000000e+000
      outer loop
         vertex 2.219359e+000 8.483361e-002 2.036000e+000
         vertex 2.037272e+000 1.309295e-001 8.132766e-001
         vertex 2.037272e+000 1.309295e-001 2.036000e+000
      endloop
   endfacet
   facet normal 3.328481e-001 9.429805e-001 0.000000e+000
      outer loop
         vertex 2.037272e+000 1.309295e-001 2.036000e+000
         vertex 2.037272e+000 1.309295e-001 8.132766e-001
         vertex 1.833548e+000 2.074936e-001 2.036000e+000
      endloop
   endfacet
   facet normal -3.090906e-002 9.995222e-001 0.000000e+000
      outer loop
         vertex 2.558052e+000 7.341669e-002 0.000000e+000
         vertex 2.408513e+000 6.521709e-002 0.000000e+000
         vertex 2.408513e+000 6.521709e-002 8.132766e-001
      endloop
   endfacet
   facet normal 2.593397e-001 9.657862e-001 0.000000e+000
      outer loop
         vertex 8.141463e-001 6.690378e-001 6.878307e-001
         vertex 8.141463e-001 6.690378e-001 4.558779e-001
         vertex 7.957011e-001 6.739488e-001 4.440892e-016
      endloop
   endfacet
   facet normal 2.898912e-001 9.570596e-001 0.000000e+000
      outer loop
         vertex 7.957011e-001 6.739488e-001 4.440892e-016
         vertex 8.141463e-001 6.690378e-001 4.558779e-001
         vertex 9.749721e-001 6.162320e-001 0.000000e+000
      endloop
   endfacet
   facet normal 3.242839e-001 9.459598e-001 0.000000e+000
      outer loop
         vertex 9.749721e-001 6.162320e-001 0.000000e+000
         vertex 8.141463e-001 6.690378e-001 4.558779e-001
         vertex 9.749721e-001 6.162320e-001 4.558779e-001
      endloop
   endfacet
   facet normal 3.817376e-001 9.242707e-001 0.000000e+000
      outer loop
         vertex 9.749721e-001 6.162320e-001 0.000000e+000
         vertex 9.749721e-001 6.162320e-001 4.558779e-001
         vertex 1.227250e+000 5.057918e-001 0.000000e+000
      endloop
   endfacet
   facet normal 4.049562e-001 9.143361e-001 0.000000e+000
      outer loop
         vertex 1.227250e+000 5.057918e-001 0.000000e+000
         vertex 9.749721e-001 6.162320e-001 4.558779e-001
         vertex 1.173227e+000 5.315311e-001 4.558779e-001
      endloop
   endfacet
   facet normal 4.278968e-001 9.038276e-001 0.000000e+000
      outer loop
         vertex 1.227250e+000 5.057918e-001 0.000000e+000
         vertex 1.173227e+000 5.315311e-001 4.558779e-001
         vertex 1.173227e+000 5.315311e-001 6.878307e-001
      endloop
   endfacet
   facet normal -7.622903e-001 6.472353e-001 0.000000e+000
      outer loop
         vertex 3.451170e+000 6.546893e-001 2.036000e+000
         vertex 3.451170e+000 6.546893e-001 0.000000e+000
         vertex 3.381476e+000 5.735932e-001 0.000000e+000
      endloop
   endfacet
   facet normal -7.539553e-001 6.569257e-001 0.000000e+000
      outer loop
         vertex 3.451170e+000 6.546893e-001 2.036000e+000
         vertex 3.381476e+000 5.735932e-001 0.000000e+000
         vertex 3.381476e+000 5.735932e-001 2.036000e+000
      endloop
   endfacet
   facet normal -7.205350e-001 6.934185e-001 0.000000e+000
      outer loop
         vertex 3.381476e+000 5.735932e-001 2.036000e+000
         vertex 3.381476e+000 5.735932e-001 0.000000e+000
         vertex 3.208719e+000 3.995557e-001 0.000000e+000
      endloop
   endfacet
   facet normal -6.945651e-001 7.194299e-001 0.000000e+000
      outer loop
         vertex 3.381476e+000 5.735932e-001 2.036000e+000
         vertex 3.208719e+000 3.995557e-001 0.000000e+000
         vertex 3.208719e+000 3.995557e-001 2.036000e+000
      endloop
   endfacet
   facet normal -6.350701e-001 7.724546e-001 0.000000e+000
      outer loop
         vertex 3.208719e+000 3.995557e-001 2.036000e+000
         vertex 3.208719e+000 3.995557e-001 0.000000e+000
         vertex 3.041539e+000 2.672303e-001 0.000000e+000
      endloop
   endfacet
   facet normal -6.012082e-001 7.990924e-001 0.000000e+000
      outer loop
         vertex 3.208719e+000 3.995557e-001 2.036000e+000
         vertex 3.041539e+000 2.672303e-001 0.000000e+000
         vertex 3.041539e+000 2.672303e-001 2.036000e+000
      endloop
   endfacet
   facet normal -5.248810e-001 8.511756e-001 0.000000e+000
      outer loop
         vertex 3.041539e+000 2.672303e-001 2.036000e+000
         vertex 3.041539e+000 2.672303e-001 0.000000e+000
         vertex 2.877017e+000 1.707198e-001 0.000000e+000
      endloop
   endfacet
   facet normal -4.820774e-001 8.761286e-001 0.000000e+000
      outer loop
         vertex 3.041539e+000 2.672303e-001 2.036000e+000
         vertex 2.877017e+000 1.707198e-001 0.000000e+000
         vertex 2.877017e+000 1.707198e-001 2.036000e+000
      endloop
   endfacet
   facet normal -3.880305e-001 9.216465e-001 0.000000e+000
      outer loop
         vertex 2.877017e+000 1.707198e-001 2.036000e+000
         vertex 2.877017e+000 1.707198e-001 0.000000e+000
         vertex 2.711518e+000 1.060087e-001 0.000000e+000
      endloop
   endfacet
   facet normal -3.365254e-001 9.416744e-001 0.000000e+000
      outer loop
         vertex 2.877017e+000 1.707198e-001 2.036000e+000
         vertex 2.711518e+000 1.060087e-001 0.000000e+000
         vertex 2.711518e+000 1.060087e-001 2.036000e+000
      endloop
   endfacet
   facet normal -2.331881e-001 9.724317e-001 0.000000e+000
      outer loop
         vertex 2.711518e+000 1.060087e-001 2.036000e+000
         vertex 2.711518e+000 1.060087e-001 0.000000e+000
         vertex 2.558052e+000 7.341669e-002 0.000000e+000
      endloop
   endfacet
   facet normal -1.814278e-001 9.834043e-001 0.000000e+000
      outer loop
         vertex 2.711518e+000 1.060087e-001 2.036000e+000
         vertex 2.558052e+000 7.341669e-002 0.000000e+000
         vertex 2.558052e+000 7.341669e-002 2.036000e+000
      endloop
   endfacet
   facet normal -8.026534e-002 9.967735e-001 0.000000e+000
      outer loop
         vertex 2.558052e+000 7.341669e-002 2.036000e+000
         vertex 2.558052e+000 7.341669e-002 0.000000e+000
         vertex 2.408513e+000 6.521709e-002 8.132766e-001
      endloop
   endfacet
   facet normal -2.407184e-002 9.997102e-001 0.000000e+000
      outer loop
         vertex 2.558052e+000 7.341669e-002 2.036000e+000
         vertex 2.408513e+000 6.521709e-002 8.132766e-001
         vertex 2.386676e+000 6.584360e-002 2.036000e+000
      endloop
   endfacet
   facet normal 3.206340e-002 9.994859e-001 0.000000e+000
      outer loop
         vertex 2.386676e+000 6.584360e-002 2.036000e+000
         vertex 2.408513e+000 6.521709e-002 8.132766e-001
         vertex 2.386676e+000 6.584360e-002 8.132766e-001
      endloop
   endfacet
   facet normal 8.661752e-002 9.962416e-001 0.000000e+000
      outer loop
         vertex 2.386676e+000 6.584360e-002 2.036000e+000
         vertex 2.386676e+000 6.584360e-002 8.132766e-001
         vertex 2.219359e+000 8.483361e-002 8.132766e-001
      endloop
   endfacet
   facet normal 2.898912e-001 9.570596e-001 0.000000e+000
      outer loop
         vertex 8.141463e-001 6.690378e-001 6.878307e-001
         vertex 7.957011e-001 6.739488e-001 2.036000e+000
         vertex 9.749721e-001 6.162320e-001 6.878307e-001
      endloop
   endfacet
   facet normal 3.201888e-001 9.473538e-001 0.000000e+000
      outer loop
         vertex 9.749721e-001 6.162320e-001 6.878307e-001
         vertex 7.957011e-001 6.739488e-001 2.036000e+000
         vertex 9.749721e-001 6.162320e-001 2.036000e+000
      endloop
   endfacet
   facet normal 3.776582e-001 9.259450e-001 0.000000e+000
      outer loop
         vertex 9.749721e-001 6.162320e-001 6.878307e-001
         vertex 9.749721e-001 6.162320e-001 2.036000e+000
         vertex 1.173227e+000 5.315311e-001 6.878307e-001
      endloop
   endfacet
   facet normal 4.049561e-001 9.143361e-001 0.000000e+000
      outer loop
         vertex 1.173227e+000 5.315311e-001 6.878307e-001
         vertex 9.749721e-001 6.162320e-001 2.036000e+000
         vertex 1.227250e+000 5.057918e-001 2.036000e+000
      endloop
   endfacet
   facet normal 4.318812e-001 9.019305e-001 0.000000e+000
      outer loop
         vertex 1.173227e+000 5.315311e-001 6.878307e-001
         vertex 1.227250e+000 5.057918e-001 2.036000e+000
         vertex 1.227250e+000 5.057918e-001 0.000000e+000
      endloop
   endfacet
   facet normal 4.398889e-001 8.980522e-001 0.000000e+000
      outer loop
         vertex 1.227250e+000 5.057918e-001 0.000000e+000
         vertex 1.227250e+000 5.057918e-001 2.036000e+000
         vertex 1.596980e+000 3.185897e-001 2.036000e+000
      endloop
   endfacet
   facet normal 4.439120e-001 8.960704e-001 0.000000e+000
      outer loop
         vertex 1.227250e+000 5.057918e-001 0.000000e+000
         vertex 1.596980e+000 3.185897e-001 2.036000e+000
         vertex 1.596980e+000 3.185897e-001 0.000000e+000
      endloop
   endfacet
   facet normal 4.478735e-001 8.940969e-001 0.000000e+000
      outer loop
         vertex 1.596980e+000 3.185897e-001 0.000000e+000
         vertex 1.596980e+000 3.185897e-001 2.036000e+000
         vertex 1.598233e+000 3.179620e-001 2.036000e+000
      endloop
   endfacet
   facet normal 4.478210e-001 8.941233e-001 0.000000e+000
      outer loop
         vertex 1.596980e+000 3.185897e-001 0.000000e+000
         vertex 1.598233e+000 3.179620e-001 2.036000e+000
         vertex 1.598233e+000 3.179620e-001 0.000000e+000
      endloop
   endfacet
   facet normal 4.297885e-001 9.029296e-001 0.000000e+000
      outer loop
         vertex 1.598233e+000 3.179620e-001 0.000000e+000
         vertex 1.598233e+000 3.179620e-001 2.036000e+000
         vertex 1.833548e+000 2.074936e-001 2.036000e+000
      endloop
   endfacet
   facet normal 4.116291e-001 9.113515e-001 0.000000e+000
      outer loop
         vertex 1.598233e+000 3.179620e-001 0.000000e+000
         vertex 1.833548e+000 2.074936e-001 2.036000e+000
         vertex 1.833548e+000 2.074936e-001 0.000000e+000
      endloop
   endfacet
   facet normal 3.761562e-001 9.265563e-001 0.000000e+000
      outer loop
         vertex 1.833548e+000 2.074936e-001 0.000000e+000
         vertex 1.833548e+000 2.074936e-001 2.036000e+000
         vertex 1.960985e+000 1.569099e-001 8.132766e-001
      endloop
   endfacet
   facet normal 3.588643e-001 9.333897e-001 0.000000e+000
      outer loop
         vertex 1.833548e+000 2.074936e-001 0.000000e+000
         vertex 1.960985e+000 1.569099e-001 8.132766e-001
         vertex 1.960985e+000 1.569099e-001 0.000000e+000
      endloop
   endfacet
   facet normal 2.551545e-001 9.669003e-001 0.000000e+000
      outer loop
         vertex 8.141463e-001 6.690378e-001 6.878307e-001
         vertex 7.957011e-001 6.739488e-001 4.440892e-016
         vertex 7.957011e-001 6.739488e-001 2.036000e+000
      endloop
   endfacet
   facet normal 2.031896e-001 9.791394e-001 0.000000e+000
      outer loop
         vertex 7.957011e-001 6.739488e-001 2.036000e+000
         vertex 7.957011e-001 6.739488e-001 4.440892e-016
         vertex 6.174580e-001 7.070459e-001 0.000000e+000
      endloop
   endfacet
   facet normal 1.548085e-001 9.879445e-001 0.000000e+000
      outer loop
         vertex 7.957011e-001 6.739488e-001 2.036000e+000
         vertex 6.174580e-001 7.070459e-001 0.000000e+000
         vertex 6.174580e-001 7.070459e-001 2.036000e+000
      endloop
   endfacet
   facet normal 5.405303e-002 9.985381e-001 0.000000e+000
      outer loop
         vertex 6.174580e-001 7.070459e-001 2.036000e+000
         vertex 6.174580e-001 7.070459e-001 0.000000e+000
         vertex 4.622433e-001 7.116773e-001 0.000000e+000
      endloop
   endfacet
   facet normal 1.643605e-003 9.999986e-001 0.000000e+000
      outer loop
         vertex 6.174580e-001 7.070459e-001 2.036000e+000
         vertex 4.622433e-001 7.116773e-001 0.000000e+000
         vertex 4.622433e-001 7.116773e-001 2.036000e+000
      endloop
   endfacet
   facet normal -1.067967e-001 9.942809e-001 0.000000e+000
      outer loop
         vertex 4.622433e-001 7.116773e-001 2.036000e+000
         vertex 4.622433e-001 7.116773e-001 0.000000e+000
         vertex 3.110583e-001 6.911753e-001 0.000000e+000
      endloop
   endfacet
   facet normal -1.628052e-001 9.866582e-001 0.000000e+000
      outer loop
         vertex 4.622433e-001 7.116773e-001 2.036000e+000
         vertex 3.110583e-001 6.911753e-001 0.000000e+000
         vertex 3.110583e-001 6.911753e-001 2.036000e+000
      endloop
   endfacet
   facet normal -2.734330e-001 9.618911e-001 0.000000e+000
      outer loop
         vertex 3.110583e-001 6.911753e-001 2.036000e+000
         vertex 3.110583e-001 6.911753e-001 0.000000e+000
         vertex 1.600480e-001 6.433387e-001 0.000000e+000
      endloop
   endfacet
   facet normal -3.280343e-001 9.446658e-001 0.000000e+000
      outer loop
         vertex 3.110583e-001 6.911753e-001 2.036000e+000
         vertex 1.600480e-001 6.433387e-001 0.000000e+000
         vertex 1.600480e-001 6.433387e-001 2.036000e+000
      endloop
   endfacet
   facet normal -4.311000e-001 9.023042e-001 0.000000e+000
      outer loop
         vertex 1.600480e-001 6.433387e-001 2.036000e+000
         vertex 1.600480e-001 6.433387e-001 0.000000e+000
         vertex 5.986712e-003 5.639951e-001 0.000000e+000
      endloop
   endfacet
   facet normal -4.796785e-001 8.774443e-001 0.000000e+000
      outer loop
         vertex 1.600480e-001 6.433387e-001 2.036000e+000
         vertex 5.986712e-003 5.639951e-001 0.000000e+000
         vertex 5.986712e-003 5.639951e-001 2.036000e+000
      endloop
   endfacet
   facet normal -5.672952e-001 8.235145e-001 0.000000e+000
      outer loop
         vertex 5.986712e-003 5.639951e-001 2.036000e+000
         vertex 5.986712e-003 5.639951e-001 0.000000e+000
         vertex -1.514302e-001 4.490208e-001 0.000000e+000
      endloop
   endfacet
   facet normal -6.066558e-001 7.949647e-001 0.000000e+000
      outer loop
         vertex 5.986712e-003 5.639951e-001 2.036000e+000
         vertex -1.514302e-001 4.490208e-001 0.000000e+000
         vertex -1.514302e-001 4.490208e-001 2.036000e+000
      endloop
   endfacet
   facet normal 0.000000e+000 0.000000e+000 1.000000e+000
      outer loop
         vertex 2.558052e+000 7.341669e-002 2.036000e+000
         vertex 2.526165e+000 -2.227913e-001 2.036000e+000
         vertex 2.692025e+000 -1.898645e-001 2.036000e+000
      endloop
   endfacet
   facet normal 0.000000e+000 0.000000e+000 1.000000e+000
      outer loop
         vertex 2.558052e+000 7.341669e-002 2.036000e+000
         vertex 2.692025e+000 -1.898645e-001 2.036000e+000
         vertex 2.711518e+000 1.060087e-001 2.036000e+000
      endloop
   endfacet
   facet normal 0.000000e+000 0.000000e+000 1.000000e+000
      outer loop
         vertex 2.711518e+000 1.060087e-001 2.036000e+000
         vertex 2.692025e+000 -1.898645e-001 2.036000e+000
         vertex 2.852920e+000 -1.268315e-001 2.036000e+000
      endloop
   endfacet
   facet normal 0.000000e+000 0.000000e+000 1.000000e+000
      outer loop
         vertex 2.711518e+000 1.060087e-001 2.036000e+000
         vertex 2.852920e+000 -1.268315e-001 2.036000e+000
         vertex 2.877017e+000 1.707198e-001 2.036000e+000
      endloop
   endfacet
   facet normal 0.000000e+000 0.000000e+000 1.000000e+000
      outer loop
         vertex 2.877017e+000 1.707198e-001 2.036000e+000
         vertex 2.852920e+000 -1.268315e-001 2.036000e+000
         vertex 3.013101e+000 -3.191806e-002 2.036000e+000
      endloop
   endfacet
   facet normal 0.000000e+000 0.000000e+000 1.000000e+000
      outer loop
         vertex 2.877017e+000 1.707198e-001 2.036000e+000
         vertex 3.013101e+000 -3.191806e-002 2.036000e+000
         vertex 3.041539e+000 2.672303e-001 2.036000e+000
      endloop
   endfacet
   facet normal 0.000000e+000 0.000000e+000 1.000000e+000
      outer loop
         vertex 3.041539e+000 2.672303e-001 2.036000e+000
         vertex 3.013101e+000 -3.191806e-002 2.036000e+000
         vertex 3.176342e+000 9.910481e-002 2.036000e+000
      endloop
   endfacet
   facet normal 0.000000e+000 0.000000e+000 1.000000e+000
      outer loop
         vertex 3.041539e+000 2.672303e-001 2.036000e+000
         vertex 3.176342e+000 9.910481e-002 2.036000e+000
         vertex 3.208719e+000 3.995557e-001 2.036000e+000
      endloop
   endfacet
   facet normal 0.000000e+000 0.000000e+000 1.000000e+000
      outer loop
         vertex 3.208719e+000 3.995557e-001 2.036000e+000
         vertex 3.176342e+000 9.910481e-002 2.036000e+000
         vertex 3.345560e+000 2.723725e-001 2.036000e+000
      endloop
   endfacet
   facet normal 0.000000e+000 0.000000e+000 1.000000e+000
      outer loop
         vertex 3.208719e+000 3.995557e-001 2.036000e+000
         vertex 3.345560e+000 2.723725e-001 2.036000e+000
         vertex 3.381476e+000 5.735932e-001 2.036000e+000
      endloop
   endfacet
   facet normal 0.000000e+000 0.000000e+000 1.000000e+000
      outer loop
         vertex 3.381476e+000 5.735932e-001 2.036000e+000
         vertex 3.345560e+000 2.723725e-001 2.036000e+000
         vertex 3.500906e+000 4.654295e-001 2.036000e+000
      endloop
   endfacet
   facet normal 0.000000e+000 0.000000e+000 1.000000e+000
      outer loop
         vertex 3.381476e+000 5.735932e-001 2.036000e+000
         vertex 3.500906e+000 4.654295e-001 2.036000e+000
         vertex 3.451170e+000 6.546893e-001 2.036000e+000
      endloop
   endfacet
   facet normal 0.000000e+000 0.000000e+000 1.000000e+000
      outer loop
         vertex 2.526165e+000 -2.227913e-001 2.036000e+000
         vertex 2.558052e+000 7.341669e-002 2.036000e+000
         vertex 2.386828e+000 -2.270885e-001 2.036000e+000
      endloop
   endfacet
   facet normal 0.000000e+000 0.000000e+000 1.000000e+000
      outer loop
         vertex 2.386828e+000 -2.270885e-001 2.036000e+000
         vertex 2.558052e+000 7.341669e-002 2.036000e+000
         vertex 2.386676e+000 6.584360e-002 2.036000e+000
      endloop
   endfacet
   facet normal 0.000000e+000 0.000000e+000 1.000000e+000
      outer loop
         vertex 2.386828e+000 -2.270885e-001 2.036000e+000
         vertex 2.386676e+000 6.584360e-002 2.036000e+000
         vertex 2.225495e+000 -2.079398e-001 2.036000e+000
      endloop
   endfacet
   facet normal 0.000000e+000 0.000000e+000 1.000000e+000
      outer loop
         vertex 2.225495e+000 -2.079398e-001 2.036000e+000
         vertex 2.386676e+000 6.584360e-002 2.036000e+000
         vertex 2.219359e+000 8.483361e-002 2.036000e+000
      endloop
   endfacet
   facet normal 0.000000e+000 0.000000e+000 1.000000e+000
      outer loop
         vertex 2.225495e+000 -2.079398e-001 2.036000e+000
         vertex 2.219359e+000 8.483361e-002 2.036000e+000
         vertex 2.050415e+000 -1.616250e-001 2.036000e+000
      endloop
   endfacet
   facet normal 0.000000e+000 0.000000e+000 1.000000e+000
      outer loop
         vertex 2.050415e+000 -1.616250e-001 2.036000e+000
         vertex 2.219359e+000 8.483361e-002 2.036000e+000
         vertex 2.037272e+000 1.309295e-001 2.036000e+000
      endloop
   endfacet
   facet normal 0.000000e+000 0.000000e+000 1.000000e+000
      outer loop
         vertex 2.050415e+000 -1.616250e-001 2.036000e+000
         vertex 2.037272e+000 1.309295e-001 2.036000e+000
         vertex 1.855421e+000 -8.477454e-002 2.036000e+000
      endloop
   endfacet
   facet normal 0.000000e+000 0.000000e+000 1.000000e+000
      outer loop
         vertex 1.855421e+000 -8.477454e-002 2.036000e+000
         vertex 2.037272e+000 1.309295e-001 2.036000e+000
         vertex 1.833548e+000 2.074936e-001 2.036000e+000
      endloop
   endfacet
   facet normal 0.000000e+000 0.000000e+000 1.000000e+000
      outer loop
         vertex 1.855421e+000 -8.477454e-002 2.036000e+000
         vertex 1.833548e+000 2.074936e-001 2.036000e+000
         vertex 1.597168e+000 4.468758e-002 2.036000e+000
      endloop
   endfacet
   facet normal 0.000000e+000 0.000000e+000 1.000000e+000
      outer loop
         vertex 1.597168e+000 4.468758e-002 2.036000e+000
         vertex 1.833548e+000 2.074936e-001 2.036000e+000
         vertex 1.598233e+000 3.179620e-001 2.036000e+000
      endloop
   endfacet
   facet normal 0.000000e+000 0.000000e+000 1.000000e+000
      outer loop
         vertex 1.597168e+000 4.468758e-002 2.036000e+000
         vertex 1.598233e+000 3.179620e-001 2.036000e+000
         vertex 1.235267e+000 2.419898e-001 2.036000e+000
      endloop
   endfacet
   facet normal 0.000000e+000 0.000000e+000 1.000000e+000
      outer loop
         vertex -1.514302e-001 4.490208e-001 2.036000e+000
         vertex -9.656111e-002 2.402270e-001 2.036000e+000
         vertex 5.986712e-003 5.639951e-001 2.036000e+000
      endloop
   endfacet
   facet normal 0.000000e+000 0.000000e+000 1.000000e+000
      outer loop
         vertex 5.986712e-003 5.639951e-001 2.036000e+000
         vertex -9.656111e-002 2.402270e-001 2.036000e+000
         vertex 5.785199e-002 3.454336e-001 2.036000e+000
      endloop
   endfacet
   facet normal 0.000000e+000 0.000000e+000 1.000000e+000
      outer loop
         vertex 5.986712e-003 5.639951e-001 2.036000e+000
         vertex 5.785199e-002 3.454336e-001 2.036000e+000
         vertex 1.600480e-001 6.433387e-001 2.036000e+000
      endloop
   endfacet
   facet normal 0.000000e+000 0.000000e+000 1.000000e+000
      outer loop
         vertex 1.600480e-001 6.433387e-001 2.036000e+000
         vertex 5.785199e-002 3.454336e-001 2.036000e+000
         vertex 2.088105e-001 4.158969e-001 2.036000e+000
      endloop
   endfacet
   facet normal 0.000000e+000 0.000000e+000 1.000000e+000
      outer loop
         vertex 1.600480e-001 6.433387e-001 2.036000e+000
         vertex 2.088105e-001 4.158969e-001 2.036000e+000
         vertex 3.110583e-001 6.911753e-001 2.036000e+000
      endloop
   endfacet
   facet normal 0.000000e+000 0.000000e+000 1.000000e+000
      outer loop
         vertex 3.110583e-001 6.911753e-001 2.036000e+000
         vertex 2.088105e-001 4.158969e-001 2.036000e+000
         vertex 3.568991e-001 4.557142e-001 2.036000e+000
      endloop
   endfacet
   facet normal 0.000000e+000 0.000000e+000 1.000000e+000
      outer loop
         vertex 3.110583e-001 6.911753e-001 2.036000e+000
         vertex 3.568991e-001 4.557142e-001 2.036000e+000
         vertex 4.622433e-001 7.116773e-001 2.036000e+000
      endloop
   endfacet
   facet normal 0.000000e+000 0.000000e+000 1.000000e+000
      outer loop
         vertex 4.622433e-001 7.116773e-001 2.036000e+000
         vertex 3.568991e-001 4.557142e-001 2.036000e+000
         vertex 5.054711e-001 4.687109e-001 2.036000e+000
      endloop
   endfacet
   facet normal 0.000000e+000 0.000000e+000 1.000000e+000
      outer loop
         vertex 4.622433e-001 7.116773e-001 2.036000e+000
         vertex 5.054711e-001 4.687109e-001 2.036000e+000
         vertex 6.174580e-001 7.070459e-001 2.036000e+000
      endloop
   endfacet
   facet normal 0.000000e+000 0.000000e+000 1.000000e+000
      outer loop
         vertex 6.174580e-001 7.070459e-001 2.036000e+000
         vertex 5.054711e-001 4.687109e-001 2.036000e+000
         vertex 6.488094e-001 4.581380e-001 2.036000e+000
      endloop
   endfacet
   facet normal 0.000000e+000 0.000000e+000 1.000000e+000
      outer loop
         vertex 6.174580e-001 7.070459e-001 2.036000e+000
         vertex 6.488094e-001 4.581380e-001 2.036000e+000
         vertex 7.957011e-001 6.739488e-001 2.036000e+000
      endloop
   endfacet
   facet normal 0.000000e+000 0.000000e+000 1.000000e+000
      outer loop
         vertex 7.957011e-001 6.739488e-001 2.036000e+000
         vertex 6.488094e-001 4.581380e-001 2.036000e+000
         vertex 8.108827e-001 4.223440e-001 2.036000e+000
      endloop
   endfacet
   facet normal 0.000000e+000 0.000000e+000 1.000000e+000
      outer loop
         vertex 7.957011e-001 6.739488e-001 2.036000e+000
         vertex 8.108827e-001 4.223440e-001 2.036000e+000
         vertex 9.749721e-001 6.162320e-001 2.036000e+000
      endloop
   endfacet
   facet normal 0.000000e+000 0.000000e+000 1.000000e+000
      outer loop
         vertex 9.749721e-001 6.162320e-001 2.036000e+000
         vertex 8.108827e-001 4.223440e-001 2.036000e+000
         vertex 9.875545e-001 3.595923e-001 2.036000e+000
      endloop
   endfacet
   facet normal 0.000000e+000 0.000000e+000 1.000000e+000
      outer loop
         vertex 9.749721e-001 6.162320e-001 2.036000e+000
         vertex 9.875545e-001 3.595923e-001 2.036000e+000
         vertex 1.227250e+000 5.057918e-001 2.036000e+000
      endloop
   endfacet
   facet normal 0.000000e+000 0.000000e+000 1.000000e+000
      outer loop
         vertex 1.227250e+000 5.057918e-001 2.036000e+000
         vertex 9.875545e-001 3.595923e-001 2.036000e+000
         vertex 1.235267e+000 2.419898e-001 2.036000e+000
      endloop
   endfacet
   facet normal 0.000000e+000 0.000000e+000 1.000000e+000
      outer loop
         vertex 1.227250e+000 5.057918e-001 2.036000e+000
         vertex 1.235267e+000 2.419898e-001 2.036000e+000
         vertex 1.596980e+000 3.185897e-001 2.036000e+000
      endloop
   endfacet
   facet normal 0.000000e+000 0.000000e+000 1.000000e+000
      outer loop
         vertex 1.596980e+000 3.185897e-001 2.036000e+000
         vertex 1.235267e+000 2.419898e-001 2.036000e+000
         vertex 1.598233e+000 3.179620e-001 2.036000e+000
      endloop
   endfacet
   facet normal 0.000000e+000 0.000000e+000 -1.000000e+000
      outer loop
         vertex 2.408513e+000 -2.277453e-001 0.000000e+000
         vertex 2.408513e+000 6.521709e-002 0.000000e+000
         vertex 2.526165e+000 -2.227913e-001 0.000000e+000
      endloop
   endfacet
   facet normal 0.000000e+000 0.000000e+000 -1.000000e+000
      outer loop
         vertex 2.526165e+000 -2.227913e-001 0.000000e+000
         vertex 2.408513e+000 6.521709e-002 0.000000e+000
         vertex 2.558052e+000 7.341669e-002 0.000000e+000
      endloop
   endfacet
   facet normal 0.000000e+000 0.000000e+000 -1.000000e+000
      outer loop
         vertex 2.526165e+000 -2.227913e-001 0.000000e+000
         vertex 2.558052e+000 7.341669e-002 0.000000e+000
         vertex 2.692025e+000 -1.898645e-001 0.000000e+000
      endloop
   endfacet
   facet normal 0.000000e+000 0.000000e+000 -1.000000e+000
      outer loop
         vertex 2.692025e+000 -1.898645e-001 0.000000e+000
         vertex 2.558052e+000 7.341669e-002 0.000000e+000
         vertex 2.711518e+000 1.060087e-001 0.000000e+000
      endloop
   endfacet
   facet normal 0.000000e+000 0.000000e+000 -1.000000e+000
      outer loop
         vertex 2.692025e+000 -1.898645e-001 0.000000e+000
         vertex 2.711518e+000 1.060087e-001 0.000000e+000
         vertex 2.852920e+000 -1.268315e-001 0.000000e+000
      endloop
   endfacet
   facet normal 0.000000e+000 0.000000e+000 -1.000000e+000
      outer loop
         vertex 2.852920e+000 -1.268315e-001 0.000000e+000
         vertex 2.711518e+000 1.060087e-001 0.000000e+000
         vertex 3.013101e+000 -3.191806e-002 0.000000e+000
      endloop
   endfacet
   facet normal 0.000000e+000 0.000000e+000 -1.000000e+000
      outer loop
         vertex 3.013101e+000 -3.191806e-002 0.000000e+000
         vertex 2.711518e+000 1.060087e-001 0.000000e+000
         vertex 2.877017e+000 1.707198e-001 0.000000e+000
      endloop
   endfacet
   facet normal 0.000000e+000 0.000000e+000 -1.000000e+000
      outer loop
         vertex 3.013101e+000 -3.191806e-002 0.000000e+000
         vertex 2.877017e+000 1.707198e-001 0.000000e+000
         vertex 3.176342e+000 9.910481e-002 0.000000e+000
      endloop
   endfacet
   facet normal 0.000000e+000 0.000000e+000 -1.000000e+000
      outer loop
         vertex 3.176342e+000 9.910481e-002 0.000000e+000
         vertex 2.877017e+000 1.707198e-001 0.000000e+000
         vertex 3.041539e+000 2.672303e-001 0.000000e+000
      endloop
   endfacet
   facet normal 0.000000e+000 0.000000e+000 -1.000000e+000
      outer loop
         vertex 3.176342e+000 9.910481e-002 0.000000e+000
         vertex 3.041539e+000 2.672303e-001 0.000000e+000
         vertex 3.345560e+000 2.723725e-001 0.000000e+000
      endloop
   endfacet
   facet normal 0.000000e+000 0.000000e+000 -1.000000e+000
      outer loop
         vertex 3.345560e+000 2.723725e-001 0.000000e+000
         vertex 3.041539e+000 2.672303e-001 0.000000e+000
         vertex 3.208719e+000 3.995557e-001 0.000000e+000
      endloop
   endfacet
   facet normal 0.000000e+000 0.000000e+000 -1.000000e+000
      outer loop
         vertex 3.345560e+000 2.723725e-001 0.000000e+000
         vertex 3.208719e+000 3.995557e-001 0.000000e+000
         vertex 3.500906e+000 4.654295e-001 0.000000e+000
      endloop
   endfacet
   facet normal 0.000000e+000 0.000000e+000 -1.000000e+000
      outer loop
         vertex 3.500906e+000 4.654295e-001 0.000000e+000
         vertex 3.208719e+000 3.995557e-001 0.000000e+000
         vertex 3.381476e+000 5.735932e-001 0.000000e+000
      endloop
   endfacet
   facet normal 0.000000e+000 0.000000e+000 -1.000000e+000
      outer loop
         vertex 3.500906e+000 4.654295e-001 0.000000e+000
         vertex 3.381476e+000 5.735932e-001 0.000000e+000
         vertex 3.451170e+000 6.546893e-001 0.000000e+000
      endloop
   endfacet
   facet normal 0.000000e+000 0.000000e+000 -1.000000e+000
      outer loop
         vertex 2.408513e+000 6.521709e-002 8.132766e-001
         vertex 2.408513e+000 -2.277453e-001 8.132766e-001
         vertex 2.386676e+000 6.584360e-002 8.132766e-001
      endloop
   endfacet
   facet normal 0.000000e+000 0.000000e+000 -1.000000e+000
      outer loop
         vertex 2.386676e+000 6.584360e-002 8.132766e-001
         vertex 2.408513e+000 -2.277453e-001 8.132766e-001
         vertex 2.386828e+000 -2.270885e-001 8.132766e-001
      endloop
   endfacet
   facet normal 0.000000e+000 0.000000e+000 -1.000000e+000
      outer loop
         vertex 2.386676e+000 6.584360e-002 8.132766e-001
         vertex 2.386828e+000 -2.270885e-001 8.132766e-001
         vertex 2.219359e+000 8.483361e-002 8.132766e-001
      endloop
   endfacet
   facet normal 0.000000e+000 0.000000e+000 -1.000000e+000
      outer loop
         vertex 2.386828e+000 -2.270885e-001 8.132766e-001
         vertex 2.225495e+000 -2.079398e-001 8.132766e-001
         vertex 2.219359e+000 8.483361e-002 8.132766e-001
      endloop
   endfacet
   facet normal 0.000000e+000 0.000000e+000 -1.000000e+000
      outer loop
         vertex 2.219359e+000 8.483361e-002 8.132766e-001
         vertex 2.225495e+000 -2.079398e-001 8.132766e-001
         vertex 2.050415e+000 -1.616250e-001 8.132766e-001
      endloop
   endfacet
   facet normal 0.000000e+000 0.000000e+000 -1.000000e+000
      outer loop
         vertex 2.219359e+000 8.483361e-002 8.132766e-001
         vertex 2.050415e+000 -1.616250e-001 8.132766e-001
         vertex 2.037272e+000 1.309295e-001 8.132766e-001
      endloop
   endfacet
   facet normal 0.000000e+000 0.000000e+000 -1.000000e+000
      outer loop
         vertex 2.037272e+000 1.309295e-001 8.132766e-001
         vertex 2.050415e+000 -1.616250e-001 8.132766e-001
         vertex 1.960985e+000 -1.292587e-001 8.132766e-001
      endloop
   endfacet
   facet normal 0.000000e+000 0.000000e+000 -1.000000e+000
      outer loop
         vertex 2.037272e+000 1.309295e-001 8.132766e-001
         vertex 1.960985e+000 -1.292587e-001 8.132766e-001
         vertex 1.960985e+000 1.569099e-001 8.132766e-001
      endloop
   endfacet
   facet normal 1.000000e+000 0.000000e+000 0.000000e+000
      outer loop
         vertex 1.960985e+000 1.569099e-001 8.132766e-001
         vertex 1.960985e+000 -1.292587e-001 8.132766e-001
         vertex 1.960985e+000 1.569099e-001 0.000000e+000
      endloop
   endfacet
   facet normal 1.000000e+000 0.000000e+000 0.000000e+000
      outer loop
         vertex 1.960985e+000 1.569099e-001 0.000000e+000
         vertex 1.960985e+000 -1.292587e-001 8.132766e-001
         vertex 1.960985e+000 -1.292587e-001 0.000000e+000
      endloop
   endfacet
   facet normal -1.000000e+000 -0.000000e+000 0.000000e+000
      outer loop
         vertex 2.408513e+000 6.521709e-002 0.000000e+000
         vertex 2.408513e+000 -2.277453e-001 0.000000e+000
         vertex 2.408513e+000 6.521709e-002 8.132766e-001
      endloop
   endfacet
   facet normal -1.000000e+000 -0.000000e+000 0.000000e+000
      outer loop
         vertex 2.408513e+000 6.521709e-002 8.132766e-001
         vertex 2.408513e+000 -2.277453e-001 0.000000e+000
         vertex 2.408513e+000 -2.277453e-001 8.132766e-001
      endloop
   endfacet
   facet normal 1.000000e+000 0.000000e+000 0.000000e+000
      outer loop
         vertex 8.141463e-001 6.690378e-001 6.878307e-001
         vertex 8.141463e-001 4.213919e-001 6.878307e-001
         vertex 8.141463e-001 6.690378e-001 4.558779e-001
      endloop
   endfacet
   facet normal 1.000000e+000 0.000000e+000 0.000000e+000
      outer loop
         vertex 8.141463e-001 6.690378e-001 4.558779e-001
         vertex 8.141463e-001 4.213919e-001 6.878307e-001
         vertex 8.141463e-001 4.213919e-001 4.558779e-001
      endloop
   endfacet
   facet normal 0.000000e+000 0.000000e+000 -1.000000e+000
      outer loop
         vertex 1.173227e+000 5.315311e-001 6.878307e-001
         vertex 1.173227e+000 2.738257e-001 6.878307e-001
         vertex 9.875545e-001 3.595923e-001 6.878307e-001
      endloop
   endfacet
   facet normal 0.000000e+000 0.000000e+000 -1.000000e+000
      outer loop
         vertex 1.173227e+000 5.315311e-001 6.878307e-001
         vertex 9.875545e-001 3.595923e-001 6.878307e-001
         vertex 9.749721e-001 6.162320e-001 6.878307e-001
      endloop
   endfacet
   facet normal 0.000000e+000 0.000000e+000 -1.000000e+000
      outer loop
         vertex 9.749721e-001 6.162320e-001 6.878307e-001
         vertex 9.875545e-001 3.595923e-001 6.878307e-001
         vertex 8.141463e-001 4.213919e-001 6.878307e-001
      endloop
   endfacet
   facet normal 0.000000e+000 0.000000e+000 -1.000000e+000
      outer loop
         vertex 9.749721e-001 6.162320e-001 6.878307e-001
         vertex 8.141463e-001 4.213919e-001 6.878307e-001
         vertex 8.141463e-001 6.690378e-001 6.878307e-001
      endloop
   endfacet
   facet normal -1.000000e+000 -0.000000e+000 0.000000e+000
      outer loop
         vertex 1.173227e+000 5.315311e-001 4.558779e-001
         vertex 1.173227e+000 2.738257e-001 4.558779e-001
         vertex 1.173227e+000 5.315311e-001 6.878307e-001
      endloop
   endfacet
   facet normal -1.000000e+000 -0.000000e+000 0.000000e+000
      outer loop
         vertex 1.173227e+000 5.315311e-001 6.878307e-001
         vertex 1.173227e+000 2.738257e-001 4.558779e-001
         vertex 1.173227e+000 2.738257e-001 6.878307e-001
      endloop
   endfacet
   facet normal 0.000000e+000 0.000000e+000 1.000000e+000
      outer loop
         vertex 8.141463e-001 6.690378e-001 4.558779e-001
         vertex 8.141463e-001 4.213919e-001 4.558779e-001
         vertex 9.749721e-001 6.162320e-001 4.558779e-001
      endloop
   endfacet
   facet normal 0.000000e+000 0.000000e+000 1.000000e+000
      outer loop
         vertex 9.749721e-001 6.162320e-001 4.558779e-001
         vertex 8.141463e-001 4.213919e-001 4.558779e-001
         vertex 9.875545e-001 3.595923e-001 4.558779e-001
      endloop
   endfacet
   facet normal 0.000000e+000 0.000000e+000 1.000000e+000
      outer loop
         vertex 9.749721e-001 6.162320e-001 4.558779e-001
         vertex 9.875545e-001 3.595923e-001 4.558779e-001
         vertex 1.173227e+000 5.315311e-001 4.558779e-001
      endloop
   endfacet
   facet normal 0.000000e+000 0.000000e+000 1.000000e+000
      outer loop
         vertex 1.173227e+000 5.315311e-001 4.558779e-001
         vertex 9.875545e-001 3.595923e-001 4.558779e-001
         vertex 1.173227e+000 2.738257e-001 4.558779e-001
      endloop
   endfacet
endsolid