solid wall_type_1_large_angled
   facet normal 0.000000e+000 0.000000e+000 -1.000000e+000
      outer loop
         vertex 1.798933e+000 2.020837e+000 0.000000e+000
         vertex 2.001285e+000 1.818485e+000 0.000000e+000
         vertex 1.673053e+000 1.966494e+000 0.000000e+000
      endloop
   endfacet
   facet normal 0.000000e+000 0.000000e+000 -1.000000e+000
      outer loop
         vertex 1.673053e+000 1.966494e+000 0.000000e+000
         vertex 2.001285e+000 1.818485e+000 0.000000e+000
         vertex 1.895185e+000 1.775295e+000 0.000000e+000
      endloop
   endfacet
   facet normal 0.000000e+000 0.000000e+000 -1.000000e+000
      outer loop
         vertex 1.673053e+000 1.966494e+000 0.000000e+000
         vertex 1.895185e+000 1.775295e+000 0.000000e+000
         vertex 1.428548e+000 1.878214e+000 0.000000e+000
      endloop
   endfacet
   facet normal 0.000000e+000 0.000000e+000 -1.000000e+000
      outer loop
         vertex 1.428548e+000 1.878214e+000 0.000000e+000
         vertex 1.895185e+000 1.775295e+000 0.000000e+000
         vertex 1.621028e+000 1.684226e+000 0.000000e+000
      endloop
   endfacet
   facet normal 0.000000e+000 0.000000e+000 -1.000000e+000
      outer loop
         vertex 2.851139e-001 6.248462e-001 0.000000e+000
         vertex 9.867609e-002 7.336873e-001 0.000000e+000
         vertex 3.199081e-001 8.084250e-001 0.000000e+000
      endloop
   endfacet
   facet normal 0.000000e+000 0.000000e+000 -1.000000e+000
      outer loop
         vertex 3.199081e-001 8.084250e-001 0.000000e+000
         vertex 9.867609e-002 7.336873e-001 0.000000e+000
         vertex 1.286875e-001 9.262971e-001 0.000000e+000
      endloop
   endfacet
   facet normal 0.000000e+000 0.000000e+000 -1.000000e+000
      outer loop
         vertex 3.199081e-001 8.084250e-001 0.000000e+000
         vertex 1.286875e-001 9.262971e-001 0.000000e+000
         vertex 3.768269e-001 9.649939e-001 0.000000e+000
      endloop
   endfacet
   facet normal 0.000000e+000 0.000000e+000 -1.000000e+000
      outer loop
         vertex 3.768269e-001 9.649939e-001 0.000000e+000
         vertex 1.286875e-001 9.262971e-001 0.000000e+000
         vertex 1.815209e-001 1.091339e+000 0.000000e+000
      endloop
   endfacet
   facet normal 0.000000e+000 0.000000e+000 -1.000000e+000
      outer loop
         vertex 3.768269e-001 9.649939e-001 0.000000e+000
         vertex 1.815209e-001 1.091339e+000 0.000000e+000
         vertex 4.533862e-001 1.097863e+000 0.000000e+000
      endloop
   endfacet
   facet normal 0.000000e+000 0.000000e+000 -1.000000e+000
      outer loop
         vertex 4.533862e-001 1.097863e+000 0.000000e+000
         vertex 1.815209e-001 1.091339e+000 0.000000e+000
         vertex 2.544757e-001 1.231945e+000 0.000000e+000
      endloop
   endfacet
   facet normal 0.000000e+000 0.000000e+000 -1.000000e+000
      outer loop
         vertex 4.533862e-001 1.097863e+000 0.000000e+000
         vertex 2.544757e-001 1.231945e+000 0.000000e+000
         vertex 5.492523e-001 1.212110e+000 0.000000e+000
      endloop
   endfacet
   facet normal 0.000000e+000 0.000000e+000 -1.000000e+000
      outer loop
         vertex 5.492523e-001 1.212110e+000 0.000000e+000
         vertex 2.544757e-001 1.231945e+000 0.000000e+000
         vertex 3.468825e-001 1.353346e+000 0.000000e+000
      endloop
   endfacet
   facet normal 0.000000e+000 0.000000e+000 -1.000000e+000
      outer loop
         vertex 5.492523e-001 1.212110e+000 0.000000e+000
         vertex 3.468825e-001 1.353346e+000 0.000000e+000
         vertex 6.580841e-001 1.305989e+000 0.000000e+000
      endloop
   endfacet
   facet normal 0.000000e+000 0.000000e+000 -1.000000e+000
      outer loop
         vertex 6.580841e-001 1.305989e+000 0.000000e+000
         vertex 3.468825e-001 1.353346e+000 0.000000e+000
         vertex 4.599109e-001 1.459825e+000 0.000000e+000
      endloop
   endfacet
   facet normal 0.000000e+000 0.000000e+000 -1.000000e+000
      outer loop
         vertex 6.580841e-001 1.305989e+000 0.000000e+000
         vertex 4.599109e-001 1.459825e+000 0.000000e+000
         vertex 7.979974e-001 1.395282e+000 0.000000e+000
      endloop
   endfacet
   facet normal 0.000000e+000 0.000000e+000 -1.000000e+000
      outer loop
         vertex 7.979974e-001 1.395282e+000 0.000000e+000
         vertex 4.599109e-001 1.459825e+000 0.000000e+000
         vertex 6.093509e-001 1.562458e+000 0.000000e+000
      endloop
   endfacet
   facet normal 0.000000e+000 0.000000e+000 -1.000000e+000
      outer loop
         vertex 7.979974e-001 1.395282e+000 0.000000e+000
         vertex 6.093509e-001 1.562458e+000 0.000000e+000
         vertex 9.672954e-001 1.475836e+000 0.000000e+000
      endloop
   endfacet
   facet normal 0.000000e+000 0.000000e+000 -1.000000e+000
      outer loop
         vertex 9.672954e-001 1.475836e+000 0.000000e+000
         vertex 6.093509e-001 1.562458e+000 0.000000e+000
         vertex 7.769266e-001 1.648410e+000 0.000000e+000
      endloop
   endfacet
   facet normal 0.000000e+000 0.000000e+000 -1.000000e+000
      outer loop
         vertex 9.672954e-001 1.475836e+000 0.000000e+000
         vertex 7.769266e-001 1.648410e+000 0.000000e+000
         vertex 1.225612e+000 1.567837e+000 0.000000e+000
      endloop
   endfacet
   facet normal 0.000000e+000 0.000000e+000 -1.000000e+000
      outer loop
         vertex 1.225612e+000 1.567837e+000 0.000000e+000
         vertex 7.769266e-001 1.648410e+000 0.000000e+000
         vertex 1.033407e+000 1.748705e+000 0.000000e+000
      endloop
   endfacet
   facet normal 0.000000e+000 0.000000e+000 -1.000000e+000
      outer loop
         vertex 1.225612e+000 1.567837e+000 0.000000e+000
         vertex 1.033407e+000 1.748705e+000 0.000000e+000
         vertex 1.621028e+000 1.684226e+000 0.000000e+000
      endloop
   endfacet
   facet normal 0.000000e+000 0.000000e+000 -1.000000e+000
      outer loop
         vertex 1.621028e+000 1.684226e+000 0.000000e+000
         vertex 1.033407e+000 1.748705e+000 0.000000e+000
         vertex 1.427217e+000 1.877771e+000 0.000000e+000
      endloop
   endfacet
   facet normal 0.000000e+000 0.000000e+000 -1.000000e+000
      outer loop
         vertex 1.621028e+000 1.684226e+000 0.000000e+000
         vertex 1.427217e+000 1.877771e+000 0.000000e+000
         vertex 1.428548e+000 1.878214e+000 0.000000e+000
      endloop
   endfacet
   facet normal -5.041679e-001 -8.636057e-001 0.000000e+000
      outer loop
         vertex 2.851139e-001 6.248462e-001 2.036000e+000
         vertex 9.867609e-002 7.336873e-001 2.036000e+000
         vertex 2.851139e-001 6.248462e-001 0.000000e+000
      endloop
   endfacet
   facet normal -5.041679e-001 -8.636057e-001 0.000000e+000
      outer loop
         vertex 2.851139e-001 6.248462e-001 0.000000e+000
         vertex 9.867609e-002 7.336873e-001 2.036000e+000
         vertex 9.867609e-002 7.336873e-001 0.000000e+000
      endloop
   endfacet
   facet normal 7.224856e-001 -6.913860e-001 0.000000e+000
      outer loop
         vertex 2.387375e+000 2.065295e+000 8.132766e-001
         vertex 2.387375e+000 2.065295e+000 0.000000e+000
         vertex 2.467064e+000 2.151990e+000 0.000000e+000
      endloop
   endfacet
   facet normal 7.174228e-001 -6.966380e-001 0.000000e+000
      outer loop
         vertex 2.371577e+000 2.050425e+000 8.132766e-001
         vertex 2.387375e+000 2.065295e+000 8.132766e-001
         vertex 2.467064e+000 2.151990e+000 2.036000e+000
      endloop
   endfacet
   facet normal 5.242059e-001 -8.515916e-001 0.000000e+000
      outer loop
         vertex 2.087407e+000 1.858835e+000 2.036000e+000
         vertex 2.243957e+000 1.949886e+000 8.132766e-001
         vertex 2.243957e+000 1.949886e+000 2.036000e+000
      endloop
   endfacet
   facet normal 6.009653e-001 -7.992752e-001 0.000000e+000
      outer loop
         vertex 2.243957e+000 1.949886e+000 2.036000e+000
         vertex 2.243957e+000 1.949886e+000 8.132766e-001
         vertex 2.371577e+000 2.050425e+000 8.132766e-001
      endloop
   endfacet
   facet normal 6.400196e-001 -7.683586e-001 0.000000e+000
      outer loop
         vertex 2.243957e+000 1.949886e+000 2.036000e+000
         vertex 2.371577e+000 2.050425e+000 8.132766e-001
         vertex 2.371577e+000 2.050425e+000 2.036000e+000
      endloop
   endfacet
   facet normal 7.123185e-001 -7.018564e-001 0.000000e+000
      outer loop
         vertex 2.371577e+000 2.050425e+000 2.036000e+000
         vertex 2.371577e+000 2.050425e+000 8.132766e-001
         vertex 2.467064e+000 2.151990e+000 2.036000e+000
      endloop
   endfacet
   facet normal 3.857982e-001 -9.225832e-001 0.000000e+000
      outer loop
         vertex 1.895185e+000 1.775295e+000 0.000000e+000
         vertex 2.001285e+000 1.818485e+000 0.000000e+000
         vertex 2.001285e+000 1.818485e+000 8.132766e-001
      endloop
   endfacet
   facet normal 3.091247e-001 -9.510215e-001 0.000000e+000
      outer loop
         vertex 1.159232e+000 1.546480e+000 6.878307e-001
         vertex 1.159232e+000 1.546480e+000 4.558779e-001
         vertex 1.225612e+000 1.567837e+000 0.000000e+000
      endloop
   endfacet
   facet normal 3.323104e-001 -9.431701e-001 0.000000e+000
      outer loop
         vertex 1.225612e+000 1.567837e+000 0.000000e+000
         vertex 1.159232e+000 1.546480e+000 4.558779e-001
         vertex 9.672954e-001 1.475836e+000 0.000000e+000
      endloop
   endfacet
   facet normal 3.602276e-001 -9.328644e-001 0.000000e+000
      outer loop
         vertex 9.672954e-001 1.475836e+000 0.000000e+000
         vertex 1.159232e+000 1.546480e+000 4.558779e-001
         vertex 9.672954e-001 1.475836e+000 4.558779e-001
      endloop
   endfacet
   facet normal 4.164690e-001 -9.091499e-001 0.000000e+000
      outer loop
         vertex 9.672954e-001 1.475836e+000 0.000000e+000
         vertex 9.672954e-001 1.475836e+000 4.558779e-001
         vertex 7.979974e-001 1.395282e+000 0.000000e+000
      endloop
   endfacet
   facet normal 4.487548e-001 -8.936549e-001 0.000000e+000
      outer loop
         vertex 7.979974e-001 1.395282e+000 0.000000e+000
         vertex 9.672954e-001 1.475836e+000 4.558779e-001
         vertex 8.009783e-001 1.396917e+000 4.558779e-001
      endloop
   endfacet
   facet normal 4.804230e-001 -8.770369e-001 0.000000e+000
      outer loop
         vertex 7.979974e-001 1.395282e+000 0.000000e+000
         vertex 8.009783e-001 1.396917e+000 4.558779e-001
         vertex 8.009783e-001 1.396917e+000 6.878307e-001
      endloop
   endfacet
   facet normal 3.323104e-001 -9.431701e-001 0.000000e+000
      outer loop
         vertex 1.159232e+000 1.546480e+000 6.878307e-001
         vertex 1.225612e+000 1.567837e+000 2.036000e+000
         vertex 9.672954e-001 1.475836e+000 6.878307e-001
      endloop
   endfacet
   facet normal 3.553166e-001 -9.347460e-001 0.000000e+000
      outer loop
         vertex 9.672954e-001 1.475836e+000 6.878307e-001
         vertex 1.225612e+000 1.567837e+000 2.036000e+000
         vertex 9.672954e-001 1.475836e+000 2.036000e+000
      endloop
   endfacet
   facet normal 4.157422e-001 -9.094825e-001 0.000000e+000
      outer loop
         vertex 9.672954e-001 1.475836e+000 6.878307e-001
         vertex 9.672954e-001 1.475836e+000 2.036000e+000
         vertex 8.009783e-001 1.396917e+000 6.878307e-001
      endloop
   endfacet
   facet normal 4.487548e-001 -8.936549e-001 0.000000e+000
      outer loop
         vertex 8.009783e-001 1.396917e+000 6.878307e-001
         vertex 9.672954e-001 1.475836e+000 2.036000e+000
         vertex 7.979974e-001 1.395282e+000 2.036000e+000
      endloop
   endfacet
   facet normal 4.811249e-001 -8.766521e-001 0.000000e+000
      outer loop
         vertex 8.009783e-001 1.396917e+000 6.878307e-001
         vertex 7.979974e-001 1.395282e+000 2.036000e+000
         vertex 7.979974e-001 1.395282e+000 0.000000e+000
      endloop
   endfacet
   facet normal 5.213133e-001 -8.533654e-001 0.000000e+000
      outer loop
         vertex 7.979974e-001 1.395282e+000 0.000000e+000
         vertex 7.979974e-001 1.395282e+000 2.036000e+000
         vertex 6.580841e-001 1.305989e+000 2.036000e+000
      endloop
   endfacet
   facet normal 5.597932e-001 -8.286324e-001 0.000000e+000
      outer loop
         vertex 7.979974e-001 1.395282e+000 0.000000e+000
         vertex 6.580841e-001 1.305989e+000 2.036000e+000
         vertex 6.580841e-001 1.305989e+000 0.000000e+000
      endloop
   endfacet
   facet normal 6.358103e-001 -7.718454e-001 0.000000e+000
      outer loop
         vertex 6.580841e-001 1.305989e+000 0.000000e+000
         vertex 6.580841e-001 1.305989e+000 2.036000e+000
         vertex 5.492523e-001 1.212110e+000 2.036000e+000
      endloop
   endfacet
   facet normal 6.731411e-001 -7.395141e-001 0.000000e+000
      outer loop
         vertex 6.580841e-001 1.305989e+000 0.000000e+000
         vertex 5.492523e-001 1.212110e+000 2.036000e+000
         vertex 5.492523e-001 1.212110e+000 0.000000e+000
      endloop
   endfacet
   facet normal 7.478563e-001 -6.638607e-001 0.000000e+000
      outer loop
         vertex 5.492523e-001 1.212110e+000 0.000000e+000
         vertex 5.492523e-001 1.212110e+000 2.036000e+000
         vertex 4.533862e-001 1.097863e+000 2.036000e+000
      endloop
   endfacet
   facet normal 7.846448e-001 -6.199455e-001 0.000000e+000
      outer loop
         vertex 5.492523e-001 1.212110e+000 0.000000e+000
         vertex 4.533862e-001 1.097863e+000 2.036000e+000
         vertex 4.533862e-001 1.097863e+000 0.000000e+000
      endloop
   endfacet
   facet normal 8.509353e-001 -5.252705e-001 0.000000e+000
      outer loop
         vertex 4.533862e-001 1.097863e+000 0.000000e+000
         vertex 4.533862e-001 1.097863e+000 2.036000e+000
         vertex 3.768269e-001 9.649939e-001 2.036000e+000
      endloop
   endfacet
   facet normal 8.803012e-001 -4.744152e-001 0.000000e+000
      outer loop
         vertex 4.533862e-001 1.097863e+000 0.000000e+000
         vertex 3.768269e-001 9.649939e-001 2.036000e+000
         vertex 3.768269e-001 9.649939e-001 0.000000e+000
      endloop
   endfacet
   facet normal 9.288750e-001 -3.703933e-001 0.000000e+000
      outer loop
         vertex 3.768269e-001 9.649939e-001 0.000000e+000
         vertex 3.768269e-001 9.649939e-001 2.036000e+000
         vertex 3.199081e-001 8.084250e-001 2.036000e+000
      endloop
   endfacet
   facet normal 9.483138e-001 -3.173341e-001 0.000000e+000
      outer loop
         vertex 3.768269e-001 9.649939e-001 0.000000e+000
         vertex 3.199081e-001 8.084250e-001 2.036000e+000
         vertex 3.199081e-001 8.084250e-001 0.000000e+000
      endloop
   endfacet
   facet normal 9.767593e-001 -2.143392e-001 0.000000e+000
      outer loop
         vertex 3.199081e-001 8.084250e-001 0.000000e+000
         vertex 3.199081e-001 8.084250e-001 2.036000e+000
         vertex 2.851139e-001 6.248462e-001 2.036000e+000
      endloop
   endfacet
   facet normal 9.863659e-001 -1.645671e-001 0.000000e+000
      outer loop
         vertex 3.199081e-001 8.084250e-001 0.000000e+000
         vertex 2.851139e-001 6.248462e-001 2.036000e+000
         vertex 2.851139e-001 6.248462e-001 0.000000e+000
      endloop
   endfacet
   facet normal 3.041151e-001 -9.526353e-001 0.000000e+000
      outer loop
         vertex 1.159232e+000 1.546480e+000 6.878307e-001
         vertex 1.225612e+000 1.567837e+000 0.000000e+000
         vertex 1.225612e+000 1.567837e+000 2.036000e+000
      endloop
   endfacet
   facet normal 2.949787e-001 -9.555038e-001 0.000000e+000
      outer loop
         vertex 1.225612e+000 1.567837e+000 2.036000e+000
         vertex 1.225612e+000 1.567837e+000 0.000000e+000
         vertex 1.621028e+000 1.684226e+000 0.000000e+000
      endloop
   endfacet
   facet normal 2.908546e-001 -9.567673e-001 0.000000e+000
      outer loop
         vertex 1.225612e+000 1.567837e+000 2.036000e+000
         vertex 1.621028e+000 1.684226e+000 0.000000e+000
         vertex 1.621028e+000 1.684226e+000 2.036000e+000
      endloop
   endfacet
   facet normal 3.095835e-001 -9.508722e-001 0.000000e+000
      outer loop
         vertex 1.621028e+000 1.684226e+000 2.036000e+000
         vertex 1.621028e+000 1.684226e+000 0.000000e+000
         vertex 1.895185e+000 1.775295e+000 0.000000e+000
      endloop
   endfacet
   facet normal 3.322771e-001 -9.431818e-001 0.000000e+000
      outer loop
         vertex 1.621028e+000 1.684226e+000 2.036000e+000
         vertex 1.895185e+000 1.775295e+000 0.000000e+000
         vertex 1.895185e+000 1.775295e+000 2.036000e+000
      endloop
   endfacet
   facet normal 3.703322e-001 -9.288994e-001 0.000000e+000
      outer loop
         vertex 1.895185e+000 1.775295e+000 2.036000e+000
         vertex 1.895185e+000 1.775295e+000 0.000000e+000
         vertex 2.001285e+000 1.818485e+000 8.132766e-001
      endloop
   endfacet
   facet normal 4.018694e-001 -9.156970e-001 0.000000e+000
      outer loop
         vertex 1.895185e+000 1.775295e+000 2.036000e+000
         vertex 2.001285e+000 1.818485e+000 8.132766e-001
         vertex 2.087407e+000 1.858835e+000 2.036000e+000
      endloop
   endfacet
   facet normal 4.329377e-001 -9.014239e-001 0.000000e+000
      outer loop
         vertex 2.087407e+000 1.858835e+000 2.036000e+000
         vertex 2.001285e+000 1.818485e+000 8.132766e-001
         vertex 2.087407e+000 1.858835e+000 8.132766e-001
      endloop
   endfacet
   facet normal 4.868393e-001 -8.734916e-001 0.000000e+000
      outer loop
         vertex 2.087407e+000 1.858835e+000 2.036000e+000
         vertex 2.087407e+000 1.858835e+000 8.132766e-001
         vertex 2.243957e+000 1.949886e+000 8.132766e-001
      endloop
   endfacet
   facet normal 7.504656e-001 -6.609095e-001 0.000000e+000
      outer loop
         vertex 2.387375e+000 2.065295e+000 8.132766e-001
         vertex 2.467064e+000 2.151990e+000 0.000000e+000
         vertex 2.467064e+000 2.151990e+000 2.036000e+000
      endloop
   endfacet
   facet normal 8.137456e-001 -5.812213e-001 0.000000e+000
      outer loop
         vertex 2.467064e+000 2.151990e+000 2.036000e+000
         vertex 2.467064e+000 2.151990e+000 0.000000e+000
         vertex 2.561062e+000 2.292553e+000 0.000000e+000
      endloop
   endfacet
   facet normal 8.475156e-001 -5.307705e-001 0.000000e+000
      outer loop
         vertex 2.467064e+000 2.151990e+000 2.036000e+000
         vertex 2.561062e+000 2.292553e+000 0.000000e+000
         vertex 2.561062e+000 2.292553e+000 2.036000e+000
      endloop
   endfacet
   facet normal 9.037110e-001 -4.281431e-001 0.000000e+000
      outer loop
         vertex 2.561062e+000 2.292553e+000 2.036000e+000
         vertex 2.561062e+000 2.292553e+000 0.000000e+000
         vertex 2.630261e+000 2.450895e+000 0.000000e+000
      endloop
   endfacet
   facet normal 9.265432e-001 -3.761884e-001 0.000000e+000
      outer loop
         vertex 2.561062e+000 2.292553e+000 2.036000e+000
         vertex 2.630261e+000 2.450895e+000 0.000000e+000
         vertex 2.630261e+000 2.450895e+000 2.036000e+000
      endloop
   endfacet
   facet normal 9.614210e-001 -2.750813e-001 0.000000e+000
      outer loop
         vertex 2.630261e+000 2.450895e+000 2.036000e+000
         vertex 2.630261e+000 2.450895e+000 0.000000e+000
         vertex 2.676413e+000 2.631274e+000 0.000000e+000
      endloop
   endfacet
   facet normal 9.740941e-001 -2.261432e-001 0.000000e+000
      outer loop
         vertex 2.630261e+000 2.450895e+000 2.036000e+000
         vertex 2.676413e+000 2.631274e+000 0.000000e+000
         vertex 2.676413e+000 2.631274e+000 2.036000e+000
      endloop
   endfacet
   facet normal 9.910262e-001 -1.336678e-001 0.000000e+000
      outer loop
         vertex 2.676413e+000 2.631274e+000 2.036000e+000
         vertex 2.676413e+000 2.631274e+000 0.000000e+000
         vertex 2.699195e+000 2.839350e+000 0.000000e+000
      endloop
   endfacet
   facet normal 9.959196e-001 -9.024446e-002 0.000000e+000
      outer loop
         vertex 2.676413e+000 2.631274e+000 2.036000e+000
         vertex 2.699195e+000 2.839350e+000 0.000000e+000
         vertex 2.699195e+000 2.839350e+000 2.036000e+000
      endloop
   endfacet
   facet normal 9.999526e-001 -9.733688e-003 0.000000e+000
      outer loop
         vertex 2.699195e+000 2.839350e+000 2.036000e+000
         vertex 2.699195e+000 2.839350e+000 0.000000e+000
         vertex 2.696331e+000 3.081523e+000 0.000000e+000
      endloop
   endfacet
   facet normal 9.996265e-001 2.732869e-002 0.000000e+000
      outer loop
         vertex 2.699195e+000 2.839350e+000 2.036000e+000
         vertex 2.696331e+000 3.081523e+000 0.000000e+000
         vertex 2.696331e+000 3.081523e+000 2.036000e+000
      endloop
   endfacet
   facet normal 9.957781e-001 9.179250e-002 0.000000e+000
      outer loop
         vertex 2.696331e+000 3.081523e+000 2.036000e+000
         vertex 2.696331e+000 3.081523e+000 0.000000e+000
         vertex 2.669665e+000 3.327881e+000 0.000000e+000
      endloop
   endfacet
   facet normal 9.928663e-001 1.192332e-001 0.000000e+000
      outer loop
         vertex 2.696331e+000 3.081523e+000 2.036000e+000
         vertex 2.669665e+000 3.327881e+000 0.000000e+000
         vertex 2.669665e+000 3.327881e+000 2.036000e+000
      endloop
   endfacet
   facet normal 5.041679e-001 8.636057e-001 0.000000e+000
      outer loop
         vertex 2.500669e+000 3.426540e+000 2.036000e+000
         vertex 2.669665e+000 3.327881e+000 2.036000e+000
         vertex 2.500669e+000 3.426540e+000 0.000000e+000
      endloop
   endfacet
   facet normal 5.041679e-001 8.636057e-001 0.000000e+000
      outer loop
         vertex 2.500669e+000 3.426540e+000 0.000000e+000
         vertex 2.669665e+000 3.327881e+000 2.036000e+000
         vertex 2.669665e+000 3.327881e+000 0.000000e+000
      endloop
   endfacet
   facet normal -4.188755e-001 9.080436e-001 0.000000e+000
      outer loop
         vertex 1.871247e+000 2.056409e+000 8.132766e-001
         vertex 1.798933e+000 2.020837e+000 8.132766e-001
         vertex 1.673053e+000 1.966494e+000 2.036000e+000
      endloop
   endfacet
   facet normal -6.057733e-001 7.956373e-001 0.000000e+000
      outer loop
         vertex 2.164336e+000 2.257452e+000 2.036000e+000
         vertex 2.032596e+000 2.152569e+000 8.132766e-001
         vertex 2.032596e+000 2.152569e+000 2.036000e+000
      endloop
   endfacet
   facet normal -5.324311e-001 8.464733e-001 0.000000e+000
      outer loop
         vertex 2.032596e+000 2.152569e+000 2.036000e+000
         vertex 2.032596e+000 2.152569e+000 8.132766e-001
         vertex 1.871247e+000 2.056409e+000 8.132766e-001
      endloop
   endfacet
   facet normal -4.968420e-001 8.678410e-001 0.000000e+000
      outer loop
         vertex 2.032596e+000 2.152569e+000 2.036000e+000
         vertex 1.871247e+000 2.056409e+000 8.132766e-001
         vertex 1.871247e+000 2.056409e+000 2.036000e+000
      endloop
   endfacet
   facet normal -4.314288e-001 9.021470e-001 0.000000e+000
      outer loop
         vertex 1.871247e+000 2.056409e+000 2.036000e+000
         vertex 1.871247e+000 2.056409e+000 8.132766e-001
         vertex 1.673053e+000 1.966494e+000 2.036000e+000
      endloop
   endfacet
   facet normal -7.286249e-001 6.849129e-001 0.000000e+000
      outer loop
         vertex 2.280162e+000 2.383989e+000 0.000000e+000
         vertex 2.180220e+000 2.272450e+000 0.000000e+000
         vertex 2.180220e+000 2.272450e+000 8.132766e-001
      endloop
   endfacet
   facet normal -4.995331e-001 8.662948e-001 0.000000e+000
      outer loop
         vertex 6.258662e-001 1.572029e+000 6.878307e-001
         vertex 6.258662e-001 1.572029e+000 4.558779e-001
         vertex 6.093509e-001 1.562458e+000 4.440892e-016
      endloop
   endfacet
   facet normal -4.717593e-001 8.817273e-001 0.000000e+000
      outer loop
         vertex 6.093509e-001 1.562458e+000 4.440892e-016
         vertex 6.258662e-001 1.572029e+000 4.558779e-001
         vertex 7.769266e-001 1.648410e+000 0.000000e+000
      endloop
   endfacet
   facet normal -4.395912e-001 8.981979e-001 0.000000e+000
      outer loop
         vertex 7.769266e-001 1.648410e+000 0.000000e+000
         vertex 6.258662e-001 1.572029e+000 4.558779e-001
         vertex 7.769266e-001 1.648410e+000 4.558779e-001
      endloop
   endfacet
   facet normal -3.836288e-001 9.234874e-001 0.000000e+000
      outer loop
         vertex 7.769266e-001 1.648410e+000 0.000000e+000
         vertex 7.769266e-001 1.648410e+000 4.558779e-001
         vertex 1.033407e+000 1.748705e+000 0.000000e+000
      endloop
   endfacet
   facet normal -3.601860e-001 9.328805e-001 0.000000e+000
      outer loop
         vertex 1.033407e+000 1.748705e+000 0.000000e+000
         vertex 7.769266e-001 1.648410e+000 4.558779e-001
         vertex 9.770067e-001 1.728705e+000 4.558779e-001
      endloop
   endfacet
   facet normal -3.365339e-001 9.416714e-001 0.000000e+000
      outer loop
         vertex 1.033407e+000 1.748705e+000 0.000000e+000
         vertex 9.770067e-001 1.728705e+000 4.558779e-001
         vertex 9.770067e-001 1.728705e+000 6.878307e-001
      endloop
   endfacet
   facet normal -9.966851e-001 -8.135619e-002 0.000000e+000
      outer loop
         vertex 2.500669e+000 3.426540e+000 2.036000e+000
         vertex 2.500669e+000 3.426540e+000 0.000000e+000
         vertex 2.508732e+000 3.319915e+000 0.000000e+000
      endloop
   endfacet
   facet normal -9.976435e-001 -6.861031e-002 0.000000e+000
      outer loop
         vertex 2.500669e+000 3.426540e+000 2.036000e+000
         vertex 2.508732e+000 3.319915e+000 0.000000e+000
         vertex 2.508732e+000 3.319915e+000 2.036000e+000
      endloop
   endfacet
   facet normal -9.998162e-001 -1.917429e-002 0.000000e+000
      outer loop
         vertex 2.508732e+000 3.319915e+000 2.036000e+000
         vertex 2.508732e+000 3.319915e+000 0.000000e+000
         vertex 2.509637e+000 3.074694e+000 0.000000e+000
      endloop
   endfacet
   facet normal -9.998454e-001 1.758202e-002 0.000000e+000
      outer loop
         vertex 2.508732e+000 3.319915e+000 2.036000e+000
         vertex 2.509637e+000 3.074694e+000 0.000000e+000
         vertex 2.509637e+000 3.074694e+000 2.036000e+000
      endloop
   endfacet
   facet normal -9.952702e-001 9.714549e-002 0.000000e+000
      outer loop
         vertex 2.509637e+000 3.074694e+000 2.036000e+000
         vertex 2.509637e+000 3.074694e+000 0.000000e+000
         vertex 2.484992e+000 2.862912e+000 0.000000e+000
      endloop
   endfacet
   facet normal -9.901621e-001 1.399253e-001 0.000000e+000
      outer loop
         vertex 2.509637e+000 3.074694e+000 2.036000e+000
         vertex 2.484992e+000 2.862912e+000 0.000000e+000
         vertex 2.484992e+000 2.862912e+000 2.036000e+000
      endloop
   endfacet
   facet normal -9.730189e-001 2.307251e-001 0.000000e+000
      outer loop
         vertex 2.484992e+000 2.862912e+000 2.036000e+000
         vertex 2.484992e+000 2.862912e+000 0.000000e+000
         vertex 2.436900e+000 2.678334e+000 0.000000e+000
      endloop
   endfacet
   facet normal -9.603967e-001 2.786363e-001 0.000000e+000
      outer loop
         vertex 2.484992e+000 2.862912e+000 2.036000e+000
         vertex 2.436900e+000 2.678334e+000 0.000000e+000
         vertex 2.436900e+000 2.678334e+000 2.036000e+000
      endloop
   endfacet
   facet normal -9.260815e-001 3.773235e-001 0.000000e+000
      outer loop
         vertex 2.436900e+000 2.678334e+000 2.036000e+000
         vertex 2.436900e+000 2.678334e+000 0.000000e+000
         vertex 2.365633e+000 2.515551e+000 0.000000e+000
      endloop
   endfacet
   facet normal -9.038237e-001 4.279049e-001 0.000000e+000
      outer loop
         vertex 2.436900e+000 2.678334e+000 2.036000e+000
         vertex 2.365633e+000 2.515551e+000 0.000000e+000
         vertex 2.365633e+000 2.515551e+000 2.036000e+000
      endloop
   endfacet
   facet normal -8.525019e-001 5.227242e-001 0.000000e+000
      outer loop
         vertex 2.365633e+000 2.515551e+000 2.036000e+000
         vertex 2.365633e+000 2.515551e+000 0.000000e+000
         vertex 2.280162e+000 2.383989e+000 0.000000e+000
      endloop
   endfacet
   facet normal -8.236607e-001 5.670830e-001 0.000000e+000
      outer loop
         vertex 2.365633e+000 2.515551e+000 2.036000e+000
         vertex 2.280162e+000 2.383989e+000 0.000000e+000
         vertex 2.280162e+000 2.383989e+000 2.036000e+000
      endloop
   endfacet
   facet normal -7.615815e-001 6.480691e-001 0.000000e+000
      outer loop
         vertex 2.280162e+000 2.383989e+000 2.036000e+000
         vertex 2.280162e+000 2.383989e+000 0.000000e+000
         vertex 2.180220e+000 2.272450e+000 8.132766e-001
      endloop
   endfacet
   facet normal -7.239233e-001 6.898805e-001 0.000000e+000
      outer loop
         vertex 2.280162e+000 2.383989e+000 2.036000e+000
         vertex 2.180220e+000 2.272450e+000 8.132766e-001
         vertex 2.164336e+000 2.257452e+000 2.036000e+000
      endloop
   endfacet
   facet normal -6.840709e-001 7.294155e-001 0.000000e+000
      outer loop
         vertex 2.164336e+000 2.257452e+000 2.036000e+000
         vertex 2.180220e+000 2.272450e+000 8.132766e-001
         vertex 2.164336e+000 2.257452e+000 8.132766e-001
      endloop
   endfacet
   facet normal -6.432014e-001 7.656971e-001 0.000000e+000
      outer loop
         vertex 2.164336e+000 2.257452e+000 2.036000e+000
         vertex 2.164336e+000 2.257452e+000 8.132766e-001
         vertex 2.032596e+000 2.152569e+000 8.132766e-001
      endloop
   endfacet
   facet normal -4.717593e-001 8.817273e-001 0.000000e+000
      outer loop
         vertex 6.258662e-001 1.572029e+000 6.878307e-001
         vertex 6.093509e-001 1.562458e+000 2.036000e+000
         vertex 7.769266e-001 1.648410e+000 6.878307e-001
      endloop
   endfacet
   facet normal -4.434726e-001 8.962879e-001 0.000000e+000
      outer loop
         vertex 7.769266e-001 1.648410e+000 6.878307e-001
         vertex 6.093509e-001 1.562458e+000 2.036000e+000
         vertex 7.769266e-001 1.648410e+000 2.036000e+000
      endloop
   endfacet
   facet normal -3.876973e-001 9.217867e-001 0.000000e+000
      outer loop
         vertex 7.769266e-001 1.648410e+000 6.878307e-001
         vertex 7.769266e-001 1.648410e+000 2.036000e+000
         vertex 9.770067e-001 1.728705e+000 6.878307e-001
      endloop
   endfacet
   facet normal -3.601860e-001 9.328805e-001 0.000000e+000
      outer loop
         vertex 9.770067e-001 1.728705e+000 6.878307e-001
         vertex 7.769266e-001 1.648410e+000 2.036000e+000
         vertex 1.033407e+000 1.748705e+000 2.036000e+000
      endloop
   endfacet
   facet normal -3.323751e-001 9.431473e-001 0.000000e+000
      outer loop
         vertex 9.770067e-001 1.728705e+000 6.878307e-001
         vertex 1.033407e+000 1.748705e+000 2.036000e+000
         vertex 1.033407e+000 1.748705e+000 0.000000e+000
      endloop
   endfacet
   facet normal -3.239703e-001 9.460672e-001 0.000000e+000
      outer loop
         vertex 1.033407e+000 1.748705e+000 0.000000e+000
         vertex 1.033407e+000 1.748705e+000 2.036000e+000
         vertex 1.427217e+000 1.877771e+000 2.036000e+000
      endloop
   endfacet
   facet normal -3.197243e-001 9.475106e-001 0.000000e+000
      outer loop
         vertex 1.033407e+000 1.748705e+000 0.000000e+000
         vertex 1.427217e+000 1.877771e+000 2.036000e+000
         vertex 1.427217e+000 1.877771e+000 0.000000e+000
      endloop
   endfacet
   facet normal -3.155276e-001 9.489164e-001 0.000000e+000
      outer loop
         vertex 1.427217e+000 1.877771e+000 0.000000e+000
         vertex 1.427217e+000 1.877771e+000 2.036000e+000
         vertex 1.428548e+000 1.878214e+000 2.036000e+000
      endloop
   endfacet
   facet normal -3.155833e-001 9.488978e-001 0.000000e+000
      outer loop
         vertex 1.427217e+000 1.877771e+000 0.000000e+000
         vertex 1.428548e+000 1.878214e+000 2.036000e+000
         vertex 1.428548e+000 1.878214e+000 0.000000e+000
      endloop
   endfacet
   facet normal -3.345613e-001 9.423740e-001 0.000000e+000
      outer loop
         vertex 1.428548e+000 1.878214e+000 0.000000e+000
         vertex 1.428548e+000 1.878214e+000 2.036000e+000
         vertex 1.673053e+000 1.966494e+000 2.036000e+000
      endloop
   endfacet
   facet normal -3.533571e-001 9.354885e-001 0.000000e+000
      outer loop
         vertex 1.428548e+000 1.878214e+000 0.000000e+000
         vertex 1.673053e+000 1.966494e+000 2.036000e+000
         vertex 1.673053e+000 1.966494e+000 0.000000e+000
      endloop
   endfacet
   facet normal -3.891917e-001 9.211568e-001 0.000000e+000
      outer loop
         vertex 1.673053e+000 1.966494e+000 0.000000e+000
         vertex 1.673053e+000 1.966494e+000 2.036000e+000
         vertex 1.798933e+000 2.020837e+000 8.132766e-001
      endloop
   endfacet
   facet normal -4.062508e-001 9.137616e-001 0.000000e+000
      outer loop
         vertex 1.673053e+000 1.966494e+000 0.000000e+000
         vertex 1.798933e+000 2.020837e+000 8.132766e-001
         vertex 1.798933e+000 2.020837e+000 0.000000e+000
      endloop
   endfacet
   facet normal -5.032803e-001 8.641232e-001 0.000000e+000
      outer loop
         vertex 6.258662e-001 1.572029e+000 6.878307e-001
         vertex 6.093509e-001 1.562458e+000 4.440892e-016
         vertex 6.093509e-001 1.562458e+000 2.036000e+000
      endloop
   endfacet
   facet normal -5.486794e-001 8.360329e-001 0.000000e+000
      outer loop
         vertex 6.093509e-001 1.562458e+000 2.036000e+000
         vertex 6.093509e-001 1.562458e+000 4.440892e-016
         vertex 4.599109e-001 1.459825e+000 0.000000e+000
      endloop
   endfacet
   facet normal -5.891161e-001 8.080484e-001 0.000000e+000
      outer loop
         vertex 6.093509e-001 1.562458e+000 2.036000e+000
         vertex 4.599109e-001 1.459825e+000 0.000000e+000
         vertex 4.599109e-001 1.459825e+000 2.036000e+000
      endloop
   endfacet
   facet normal -6.678518e-001 7.442943e-001 0.000000e+000
      outer loop
         vertex 4.599109e-001 1.459825e+000 2.036000e+000
         vertex 4.599109e-001 1.459825e+000 0.000000e+000
         vertex 3.468825e-001 1.353346e+000 0.000000e+000
      endloop
   endfacet
   facet normal -7.059436e-001 7.082680e-001 0.000000e+000
      outer loop
         vertex 4.599109e-001 1.459825e+000 2.036000e+000
         vertex 3.468825e-001 1.353346e+000 0.000000e+000
         vertex 3.468825e-001 1.353346e+000 2.036000e+000
      endloop
   endfacet
   facet normal -7.785795e-001 6.275461e-001 0.000000e+000
      outer loop
         vertex 3.468825e-001 1.353346e+000 2.036000e+000
         vertex 3.468825e-001 1.353346e+000 0.000000e+000
         vertex 2.544757e-001 1.231945e+000 0.000000e+000
      endloop
   endfacet
   facet normal -8.127934e-001 5.825521e-001 0.000000e+000
      outer loop
         vertex 3.468825e-001 1.353346e+000 2.036000e+000
         vertex 2.544757e-001 1.231945e+000 0.000000e+000
         vertex 2.544757e-001 1.231945e+000 2.036000e+000
      endloop
   endfacet
   facet normal -8.735060e-001 4.868134e-001 0.000000e+000
      outer loop
         vertex 2.544757e-001 1.231945e+000 2.036000e+000
         vertex 2.544757e-001 1.231945e+000 0.000000e+000
         vertex 1.815209e-001 1.091339e+000 0.000000e+000
      endloop
   endfacet
   facet normal -8.999349e-001 4.360243e-001 0.000000e+000
      outer loop
         vertex 2.544757e-001 1.231945e+000 2.036000e+000
         vertex 1.815209e-001 1.091339e+000 0.000000e+000
         vertex 1.815209e-001 1.091339e+000 2.036000e+000
      endloop
   endfacet
   facet normal -9.428591e-001 3.331916e-001 0.000000e+000
      outer loop
         vertex 1.815209e-001 1.091339e+000 2.036000e+000
         vertex 1.815209e-001 1.091339e+000 0.000000e+000
         vertex 1.286875e-001 9.262971e-001 0.000000e+000
      endloop
   endfacet
   facet normal -9.596307e-001 2.812630e-001 0.000000e+000
      outer loop
         vertex 1.815209e-001 1.091339e+000 2.036000e+000
         vertex 1.286875e-001 9.262971e-001 0.000000e+000
         vertex 1.286875e-001 9.262971e-001 2.036000e+000
      endloop
   endfacet
   facet normal -9.834510e-001 1.811744e-001 0.000000e+000
      outer loop
         vertex 1.286875e-001 9.262971e-001 2.036000e+000
         vertex 1.286875e-001 9.262971e-001 0.000000e+000
         vertex 9.867609e-002 7.336873e-001 0.000000e+000
      endloop
   endfacet
   facet normal -9.910953e-001 1.331545e-001 0.000000e+000
      outer loop
         vertex 1.286875e-001 9.262971e-001 2.036000e+000
         vertex 9.867609e-002 7.336873e-001 0.000000e+000
         vertex 9.867609e-002 7.336873e-001 2.036000e+000
      endloop
   endfacet
   facet normal 0.000000e+000 0.000000e+000 1.000000e+000
      outer loop
         vertex 2.280162e+000 2.383989e+000 2.036000e+000
         vertex 2.467064e+000 2.151990e+000 2.036000e+000
         vertex 2.561062e+000 2.292553e+000 2.036000e+000
      endloop
   endfacet
   facet normal 0.000000e+000 0.000000e+000 1.000000e+000
      outer loop
         vertex 2.280162e+000 2.383989e+000 2.036000e+000
         vertex 2.561062e+000 2.292553e+000 2.036000e+000
         vertex 2.365633e+000 2.515551e+000 2.036000e+000
      endloop
   endfacet
   facet normal 0.000000e+000 0.000000e+000 1.000000e+000
      outer loop
         vertex 2.365633e+000 2.515551e+000 2.036000e+000
         vertex 2.561062e+000 2.292553e+000 2.036000e+000
         vertex 2.630261e+000 2.450895e+000 2.036000e+000
      endloop
   endfacet
   facet normal 0.000000e+000 0.000000e+000 1.000000e+000
      outer loop
         vertex 2.365633e+000 2.515551e+000 2.036000e+000
         vertex 2.630261e+000 2.450895e+000 2.036000e+000
         vertex 2.436900e+000 2.678334e+000 2.036000e+000
      endloop
   endfacet
   facet normal 0.000000e+000 0.000000e+000 1.000000e+000
      outer loop
         vertex 2.436900e+000 2.678334e+000 2.036000e+000
         vertex 2.630261e+000 2.450895e+000 2.036000e+000
         vertex 2.676413e+000 2.631274e+000 2.036000e+000
      endloop
   endfacet
   facet normal 0.000000e+000 0.000000e+000 1.000000e+000
      outer loop
         vertex 2.436900e+000 2.678334e+000 2.036000e+000
         vertex 2.676413e+000 2.631274e+000 2.036000e+000
         vertex 2.484992e+000 2.862912e+000 2.036000e+000
      endloop
   endfacet
   facet normal 0.000000e+000 0.000000e+000 1.000000e+000
      outer loop
         vertex 2.484992e+000 2.862912e+000 2.036000e+000
         vertex 2.676413e+000 2.631274e+000 2.036000e+000
         vertex 2.699195e+000 2.839350e+000 2.036000e+000
      endloop
   endfacet
   facet normal 0.000000e+000 0.000000e+000 1.000000e+000
      outer loop
         vertex 2.484992e+000 2.862912e+000 2.036000e+000
         vertex 2.699195e+000 2.839350e+000 2.036000e+000
         vertex 2.509637e+000 3.074694e+000 2.036000e+000
      endloop
   endfacet
   facet normal 0.000000e+000 0.000000e+000 1.000000e+000
      outer loop
         vertex 2.509637e+000 3.074694e+000 2.036000e+000
         vertex 2.699195e+000 2.839350e+000 2.036000e+000
         vertex 2.696331e+000 3.081523e+000 2.036000e+000
      endloop
   endfacet
   facet normal 0.000000e+000 0.000000e+000 1.000000e+000
      outer loop
         vertex 2.509637e+000 3.074694e+000 2.036000e+000
         vertex 2.696331e+000 3.081523e+000 2.036000e+000
         vertex 2.508732e+000 3.319915e+000 2.036000e+000
      endloop
   endfacet
   facet normal 0.000000e+000 0.000000e+000 1.000000e+000
      outer loop
         vertex 2.508732e+000 3.319915e+000 2.036000e+000
         vertex 2.696331e+000 3.081523e+000 2.036000e+000
         vertex 2.669665e+000 3.327881e+000 2.036000e+000
      endloop
   endfacet
   facet normal 0.000000e+000 0.000000e+000 1.000000e+000
      outer loop
         vertex 2.508732e+000 3.319915e+000 2.036000e+000
         vertex 2.669665e+000 3.327881e+000 2.036000e+000
         vertex 2.500669e+000 3.426540e+000 2.036000e+000
      endloop
   endfacet
   facet normal 0.000000e+000 0.000000e+000 1.000000e+000
      outer loop
         vertex 2.467064e+000 2.151990e+000 2.036000e+000
         vertex 2.280162e+000 2.383989e+000 2.036000e+000
         vertex 2.371577e+000 2.050425e+000 2.036000e+000
      endloop
   endfacet
   facet normal 0.000000e+000 0.000000e+000 1.000000e+000
      outer loop
         vertex 2.371577e+000 2.050425e+000 2.036000e+000
         vertex 2.280162e+000 2.383989e+000 2.036000e+000
         vertex 2.164336e+000 2.257452e+000 2.036000e+000
      endloop
   endfacet
   facet normal 0.000000e+000 0.000000e+000 1.000000e+000
      outer loop
         vertex 2.371577e+000 2.050425e+000 2.036000e+000
         vertex 2.164336e+000 2.257452e+000 2.036000e+000
         vertex 2.243957e+000 1.949886e+000 2.036000e+000
      endloop
   endfacet
   facet normal 0.000000e+000 0.000000e+000 1.000000e+000
      outer loop
         vertex 2.243957e+000 1.949886e+000 2.036000e+000
         vertex 2.164336e+000 2.257452e+000 2.036000e+000
         vertex 2.032596e+000 2.152569e+000 2.036000e+000
      endloop
   endfacet
   facet normal 0.000000e+000 0.000000e+000 1.000000e+000
      outer loop
         vertex 2.243957e+000 1.949886e+000 2.036000e+000
         vertex 2.032596e+000 2.152569e+000 2.036000e+000
         vertex 2.087407e+000 1.858835e+000 2.036000e+000
      endloop
   endfacet
   facet normal 0.000000e+000 0.000000e+000 1.000000e+000
      outer loop
         vertex 2.087407e+000 1.858835e+000 2.036000e+000
         vertex 2.032596e+000 2.152569e+000 2.036000e+000
         vertex 1.871247e+000 2.056409e+000 2.036000e+000
      endloop
   endfacet
   facet normal 0.000000e+000 0.000000e+000 1.000000e+000
      outer loop
         vertex 2.087407e+000 1.858835e+000 2.036000e+000
         vertex 1.871247e+000 2.056409e+000 2.036000e+000
         vertex 1.895185e+000 1.775295e+000 2.036000e+000
      endloop
   endfacet
   facet normal 0.000000e+000 0.000000e+000 1.000000e+000
      outer loop
         vertex 1.895185e+000 1.775295e+000 2.036000e+000
         vertex 1.871247e+000 2.056409e+000 2.036000e+000
         vertex 1.673053e+000 1.966494e+000 2.036000e+000
      endloop
   endfacet
   facet normal 0.000000e+000 0.000000e+000 1.000000e+000
      outer loop
         vertex 1.895185e+000 1.775295e+000 2.036000e+000
         vertex 1.673053e+000 1.966494e+000 2.036000e+000
         vertex 1.621028e+000 1.684226e+000 2.036000e+000
      endloop
   endfacet
   facet normal 0.000000e+000 0.000000e+000 1.000000e+000
      outer loop
         vertex 1.621028e+000 1.684226e+000 2.036000e+000
         vertex 1.673053e+000 1.966494e+000 2.036000e+000
         vertex 1.428548e+000 1.878214e+000 2.036000e+000
      endloop
   endfacet
   facet normal 0.000000e+000 0.000000e+000 1.000000e+000
      outer loop
         vertex 1.621028e+000 1.684226e+000 2.036000e+000
         vertex 1.428548e+000 1.878214e+000 2.036000e+000
         vertex 1.225612e+000 1.567837e+000 2.036000e+000
      endloop
   endfacet
   facet normal 0.000000e+000 0.000000e+000 1.000000e+000
      outer loop
         vertex 9.867609e-002 7.336873e-001 2.036000e+000
         vertex 2.851139e-001 6.248462e-001 2.036000e+000
         vertex 1.286875e-001 9.262971e-001 2.036000e+000
      endloop
   endfacet
   facet normal 0.000000e+000 0.000000e+000 1.000000e+000
      outer loop
         vertex 1.286875e-001 9.262971e-001 2.036000e+000
         vertex 2.851139e-001 6.248462e-001 2.036000e+000
         vertex 3.199081e-001 8.084250e-001 2.036000e+000
      endloop
   endfacet
   facet normal 0.000000e+000 0.000000e+000 1.000000e+000
      outer loop
         vertex 1.286875e-001 9.262971e-001 2.036000e+000
         vertex 3.199081e-001 8.084250e-001 2.036000e+000
         vertex 1.815209e-001 1.091339e+000 2.036000e+000
      endloop
   endfacet
   facet normal 0.000000e+000 0.000000e+000 1.000000e+000
      outer loop
         vertex 1.815209e-001 1.091339e+000 2.036000e+000
         vertex 3.199081e-001 8.084250e-001 2.036000e+000
         vertex 3.768269e-001 9.649939e-001 2.036000e+000
      endloop
   endfacet
   facet normal 0.000000e+000 0.000000e+000 1.000000e+000
      outer loop
         vertex 1.815209e-001 1.091339e+000 2.036000e+000
         vertex 3.768269e-001 9.649939e-001 2.036000e+000
         vertex 2.544757e-001 1.231945e+000 2.036000e+000
      endloop
   endfacet
   facet normal 0.000000e+000 0.000000e+000 1.000000e+000
      outer loop
         vertex 2.544757e-001 1.231945e+000 2.036000e+000
         vertex 3.768269e-001 9.649939e-001 2.036000e+000
         vertex 4.533862e-001 1.097863e+000 2.036000e+000
      endloop
   endfacet
   facet normal 0.000000e+000 0.000000e+000 1.000000e+000
      outer loop
         vertex 2.544757e-001 1.231945e+000 2.036000e+000
         vertex 4.533862e-001 1.097863e+000 2.036000e+000
         vertex 3.468825e-001 1.353346e+000 2.036000e+000
      endloop
   endfacet
   facet normal 0.000000e+000 0.000000e+000 1.000000e+000
      outer loop
         vertex 3.468825e-001 1.353346e+000 2.036000e+000
         vertex 4.533862e-001 1.097863e+000 2.036000e+000
         vertex 5.492523e-001 1.212110e+000 2.036000e+000
      endloop
   endfacet
   facet normal 0.000000e+000 0.000000e+000 1.000000e+000
      outer loop
         vertex 3.468825e-001 1.353346e+000 2.036000e+000
         vertex 5.492523e-001 1.212110e+000 2.036000e+000
         vertex 4.599109e-001 1.459825e+000 2.036000e+000
      endloop
   endfacet
   facet normal 0.000000e+000 0.000000e+000 1.000000e+000
      outer loop
         vertex 4.599109e-001 1.459825e+000 2.036000e+000
         vertex 5.492523e-001 1.212110e+000 2.036000e+000
         vertex 6.580841e-001 1.305989e+000 2.036000e+000
      endloop
   endfacet
   facet normal 0.000000e+000 0.000000e+000 1.000000e+000
      outer loop
         vertex 4.599109e-001 1.459825e+000 2.036000e+000
         vertex 6.580841e-001 1.305989e+000 2.036000e+000
         vertex 6.093509e-001 1.562458e+000 2.036000e+000
      endloop
   endfacet
   facet normal 0.000000e+000 0.000000e+000 1.000000e+000
      outer loop
         vertex 6.093509e-001 1.562458e+000 2.036000e+000
         vertex 6.580841e-001 1.305989e+000 2.036000e+000
         vertex 7.979974e-001 1.395282e+000 2.036000e+000
      endloop
   endfacet
   facet normal 0.000000e+000 0.000000e+000 1.000000e+000
      outer loop
         vertex 6.093509e-001 1.562458e+000 2.036000e+000
         vertex 7.979974e-001 1.395282e+000 2.036000e+000
         vertex 7.769266e-001 1.648410e+000 2.036000e+000
      endloop
   endfacet
   facet normal 0.000000e+000 0.000000e+000 1.000000e+000
      outer loop
         vertex 7.769266e-001 1.648410e+000 2.036000e+000
         vertex 7.979974e-001 1.395282e+000 2.036000e+000
         vertex 9.672954e-001 1.475836e+000 2.036000e+000
      endloop
   endfacet
   facet normal 0.000000e+000 0.000000e+000 1.000000e+000
      outer loop
         vertex 7.769266e-001 1.648410e+000 2.036000e+000
         vertex 9.672954e-001 1.475836e+000 2.036000e+000
         vertex 1.033407e+000 1.748705e+000 2.036000e+000
      endloop
   endfacet
   facet normal 0.000000e+000 0.000000e+000 1.000000e+000
      outer loop
         vertex 1.033407e+000 1.748705e+000 2.036000e+000
         vertex 9.672954e-001 1.475836e+000 2.036000e+000
         vertex 1.225612e+000 1.567837e+000 2.036000e+000
      endloop
   endfacet
   facet normal 0.000000e+000 0.000000e+000 1.000000e+000
      outer loop
         vertex 1.033407e+000 1.748705e+000 2.036000e+000
         vertex 1.225612e+000 1.567837e+000 2.036000e+000
         vertex 1.427217e+000 1.877771e+000 2.036000e+000
      endloop
   endfacet
   facet normal 0.000000e+000 0.000000e+000 1.000000e+000
      outer loop
         vertex 1.427217e+000 1.877771e+000 2.036000e+000
         vertex 1.225612e+000 1.567837e+000 2.036000e+000
         vertex 1.428548e+000 1.878214e+000 2.036000e+000
      endloop
   endfacet
   facet normal 0.000000e+000 0.000000e+000 -1.000000e+000
      outer loop
         vertex 2.387375e+000 2.065295e+000 0.000000e+000
         vertex 2.180220e+000 2.272450e+000 0.000000e+000
         vertex 2.467064e+000 2.151990e+000 0.000000e+000
      endloop
   endfacet
   facet normal 0.000000e+000 0.000000e+000 -1.000000e+000
      outer loop
         vertex 2.467064e+000 2.151990e+000 0.000000e+000
         vertex 2.180220e+000 2.272450e+000 0.000000e+000
         vertex 2.280162e+000 2.383989e+000 0.000000e+000
      endloop
   endfacet
   facet normal 0.000000e+000 0.000000e+000 -1.000000e+000
      outer loop
         vertex 2.467064e+000 2.151990e+000 0.000000e+000
         vertex 2.280162e+000 2.383989e+000 0.000000e+000
         vertex 2.561062e+000 2.292553e+000 0.000000e+000
      endloop
   endfacet
   facet normal 0.000000e+000 0.000000e+000 -1.000000e+000
      outer loop
         vertex 2.561062e+000 2.292553e+000 0.000000e+000
         vertex 2.280162e+000 2.383989e+000 0.000000e+000
         vertex 2.365633e+000 2.515551e+000 0.000000e+000
      endloop
   endfacet
   facet normal 0.000000e+000 0.000000e+000 -1.000000e+000
      outer loop
         vertex 2.561062e+000 2.292553e+000 0.000000e+000
         vertex 2.365633e+000 2.515551e+000 0.000000e+000
         vertex 2.630261e+000 2.450895e+000 0.000000e+000
      endloop
   endfacet
   facet normal 0.000000e+000 0.000000e+000 -1.000000e+000
      outer loop
         vertex 2.630261e+000 2.450895e+000 0.000000e+000
         vertex 2.365633e+000 2.515551e+000 0.000000e+000
         vertex 2.676413e+000 2.631274e+000 0.000000e+000
      endloop
   endfacet
   facet normal 0.000000e+000 0.000000e+000 -1.000000e+000
      outer loop
         vertex 2.676413e+000 2.631274e+000 0.000000e+000
         vertex 2.365633e+000 2.515551e+000 0.000000e+000
         vertex 2.436900e+000 2.678334e+000 0.000000e+000
      endloop
   endfacet
   facet normal 0.000000e+000 0.000000e+000 -1.000000e+000
      outer loop
         vertex 2.676413e+000 2.631274e+000 0.000000e+000
         vertex 2.436900e+000 2.678334e+000 0.000000e+000
         vertex 2.699195e+000 2.839350e+000 0.000000e+000
      endloop
   endfacet
   facet normal 0.000000e+000 0.000000e+000 -1.000000e+000
      outer loop
         vertex 2.699195e+000 2.839350e+000 0.000000e+000
         vertex 2.436900e+000 2.678334e+000 0.000000e+000
         vertex 2.484992e+000 2.862912e+000 0.000000e+000
      endloop
   endfacet
   facet normal 0.000000e+000 0.000000e+000 -1.000000e+000
      outer loop
         vertex 2.699195e+000 2.839350e+000 0.000000e+000
         vertex 2.484992e+000 2.862912e+000 0.000000e+000
         vertex 2.696331e+000 3.081523e+000 0.000000e+000
      endloop
   endfacet
   facet normal 0.000000e+000 0.000000e+000 -1.000000e+000
      outer loop
         vertex 2.696331e+000 3.081523e+000 0.000000e+000
         vertex 2.484992e+000 2.862912e+000 0.000000e+000
         vertex 2.509637e+000 3.074694e+000 0.000000e+000
      endloop
   endfacet
   facet normal 0.000000e+000 0.000000e+000 -1.000000e+000
      outer loop
         vertex 2.696331e+000 3.081523e+000 0.000000e+000
         vertex 2.509637e+000 3.074694e+000 0.000000e+000
         vertex 2.669665e+000 3.327881e+000 0.000000e+000
      endloop
   endfacet
   facet normal 0.000000e+000 0.000000e+000 -1.000000e+000
      outer loop
         vertex 2.669665e+000 3.327881e+000 0.000000e+000
         vertex 2.509637e+000 3.074694e+000 0.000000e+000
         vertex 2.508732e+000 3.319915e+000 0.000000e+000
      endloop
   endfacet
   facet normal 0.000000e+000 0.000000e+000 -1.000000e+000
      outer loop
         vertex 2.669665e+000 3.327881e+000 0.000000e+000
         vertex 2.508732e+000 3.319915e+000 0.000000e+000
         vertex 2.500669e+000 3.426540e+000 0.000000e+000
      endloop
   endfacet
   facet normal 0.000000e+000 0.000000e+000 -1.000000e+000
      outer loop
         vertex 2.180220e+000 2.272450e+000 8.132766e-001
         vertex 2.387375e+000 2.065295e+000 8.132766e-001
         vertex 2.164336e+000 2.257452e+000 8.132766e-001
      endloop
   endfacet
   facet normal 0.000000e+000 0.000000e+000 -1.000000e+000
      outer loop
         vertex 2.164336e+000 2.257452e+000 8.132766e-001
         vertex 2.387375e+000 2.065295e+000 8.132766e-001
         vertex 2.371577e+000 2.050425e+000 8.132766e-001
      endloop
   endfacet
   facet normal 0.000000e+000 0.000000e+000 -1.000000e+000
      outer loop
         vertex 2.164336e+000 2.257452e+000 8.132766e-001
         vertex 2.371577e+000 2.050425e+000 8.132766e-001
         vertex 2.032596e+000 2.152569e+000 8.132766e-001
      endloop
   endfacet
   facet normal 0.000000e+000 0.000000e+000 -1.000000e+000
      outer loop
         vertex 2.371577e+000 2.050425e+000 8.132766e-001
         vertex 2.243957e+000 1.949886e+000 8.132766e-001
         vertex 2.032596e+000 2.152569e+000 8.132766e-001
      endloop
   endfacet
   facet normal 0.000000e+000 0.000000e+000 -1.000000e+000
      outer loop
         vertex 2.032596e+000 2.152569e+000 8.132766e-001
         vertex 2.243957e+000 1.949886e+000 8.132766e-001
         vertex 2.087407e+000 1.858835e+000 8.132766e-001
      endloop
   endfacet
   facet normal 0.000000e+000 0.000000e+000 -1.000000e+000
      outer loop
         vertex 2.032596e+000 2.152569e+000 8.132766e-001
         vertex 2.087407e+000 1.858835e+000 8.132766e-001
         vertex 1.871247e+000 2.056409e+000 8.132766e-001
      endloop
   endfacet
   facet normal 0.000000e+000 0.000000e+000 -1.000000e+000
      outer loop
         vertex 1.871247e+000 2.056409e+000 8.132766e-001
         vertex 2.087407e+000 1.858835e+000 8.132766e-001
         vertex 2.001285e+000 1.818485e+000 8.132766e-001
      endloop
   endfacet
   facet normal 0.000000e+000 0.000000e+000 -1.000000e+000
      outer loop
         vertex 1.871247e+000 2.056409e+000 8.132766e-001
         vertex 2.001285e+000 1.818485e+000 8.132766e-001
         vertex 1.798933e+000 2.020837e+000 8.132766e-001
      endloop
   endfacet
   facet normal 7.071068e-001 7.071068e-001 0.000000e+000
      outer loop
         vertex 1.798933e+000 2.020837e+000 8.132766e-001
         vertex 2.001285e+000 1.818485e+000 8.132766e-001
         vertex 1.798933e+000 2.020837e+000 0.000000e+000
      endloop
   endfacet
   facet normal 7.071068e-001 7.071068e-001 0.000000e+000
      outer loop
         vertex 1.798933e+000 2.020837e+000 0.000000e+000
         vertex 2.001285e+000 1.818485e+000 8.132766e-001
         vertex 2.001285e+000 1.818485e+000 0.000000e+000
      endloop
   endfacet
   facet normal -7.071068e-001 -7.071068e-001 0.000000e+000
      outer loop
         vertex 2.180220e+000 2.272450e+000 0.000000e+000
         vertex 2.387375e+000 2.065295e+000 0.000000e+000
         vertex 2.180220e+000 2.272450e+000 8.132766e-001
      endloop
   endfacet
   facet normal -7.071068e-001 -7.071068e-001 0.000000e+000
      outer loop
         vertex 2.180220e+000 2.272450e+000 8.132766e-001
         vertex 2.387375e+000 2.065295e+000 0.000000e+000
         vertex 2.387375e+000 2.065295e+000 8.132766e-001
      endloop
   endfacet
   facet normal 7.071068e-001 7.071068e-001 0.000000e+000
      outer loop
         vertex 6.258662e-001 1.572029e+000 6.878307e-001
         vertex 8.009783e-001 1.396917e+000 6.878307e-001
         vertex 6.258662e-001 1.572029e+000 4.558779e-001
      endloop
   endfacet
   facet normal 7.071068e-001 7.071068e-001 0.000000e+000
      outer loop
         vertex 6.258662e-001 1.572029e+000 4.558779e-001
         vertex 8.009783e-001 1.396917e+000 6.878307e-001
         vertex 8.009783e-001 1.396917e+000 4.558779e-001
      endloop
   endfacet
   facet normal 0.000000e+000 0.000000e+000 -1.000000e+000
      outer loop
         vertex 9.770067e-001 1.728705e+000 6.878307e-001
         vertex 1.159232e+000 1.546480e+000 6.878307e-001
         vertex 9.672954e-001 1.475836e+000 6.878307e-001
      endloop
   endfacet
   facet normal 0.000000e+000 0.000000e+000 -1.000000e+000
      outer loop
         vertex 9.770067e-001 1.728705e+000 6.878307e-001
         vertex 9.672954e-001 1.475836e+000 6.878307e-001
         vertex 7.769266e-001 1.648410e+000 6.878307e-001
      endloop
   endfacet
   facet normal 0.000000e+000 0.000000e+000 -1.000000e+000
      outer loop
         vertex 7.769266e-001 1.648410e+000 6.878307e-001
         vertex 9.672954e-001 1.475836e+000 6.878307e-001
         vertex 8.009783e-001 1.396917e+000 6.878307e-001
      endloop
   endfacet
   facet normal 0.000000e+000 0.000000e+000 -1.000000e+000
      outer loop
         vertex 7.769266e-001 1.648410e+000 6.878307e-001
         vertex 8.009783e-001 1.396917e+000 6.878307e-001
         vertex 6.258662e-001 1.572029e+000 6.878307e-001
      endloop
   endfacet
   facet normal -7.071068e-001 -7.071068e-001 0.000000e+000
      outer loop
         vertex 9.770067e-001 1.728705e+000 4.558779e-001
         vertex 1.159232e+000 1.546480e+000 4.558779e-001
         vertex 9.770067e-001 1.728705e+000 6.878307e-001
      endloop
   endfacet
   facet normal -7.071068e-001 -7.071068e-001 0.000000e+000
      outer loop
         vertex 9.770067e-001 1.728705e+000 6.878307e-001
         vertex 1.159232e+000 1.546480e+000 4.558779e-001
         vertex 1.159232e+000 1.546480e+000 6.878307e-001
      endloop
   endfacet
   facet normal 0.000000e+000 0.000000e+000 1.000000e+000
      outer loop
         vertex 6.258662e-001 1.572029e+000 4.558779e-001
         vertex 8.009783e-001 1.396917e+000 4.558779e-001
         vertex 7.769266e-001 1.648410e+000 4.558779e-001
      endloop
   endfacet
   facet normal 0.000000e+000 0.000000e+000 1.000000e+000
      outer loop
         vertex 7.769266e-001 1.648410e+000 4.558779e-001
         vertex 8.009783e-001 1.396917e+000 4.558779e-001
         vertex 9.672954e-001 1.475836e+000 4.558779e-001
      endloop
   endfacet
   facet normal 0.000000e+000 0.000000e+000 1.000000e+000
      outer loop
         vertex 7.769266e-001 1.648410e+000 4.558779e-001
         vertex 9.672954e-001 1.475836e+000 4.558779e-001
         vertex 9.770067e-001 1.728705e+000 4.558779e-001
      endloop
   endfacet
   facet normal 0.000000e+000 0.000000e+000 1.000000e+000
      outer loop
         vertex 9.770067e-001 1.728705e+000 4.558779e-001
         vertex 9.672954e-001 1.475836e+000 4.558779e-001
         vertex 1.159232e+000 1.546480e+000 4.558779e-001
      endloop
   endfacet
endsolid